<svg width="31" height="20" viewBox="0 0 31 20" fill="none" xmlns="http://www.w3.org/2000/svg">
<path fill-rule="evenodd" clip-rule="evenodd" d="M0.840398 10.0001L0.78785 9.26074L0.787354 9.25772L0.787608 9.25768L0.792575 9.25694L0.817118 9.25316C0.839852 9.24958 0.87515 9.24385 0.922043 9.23574C1.01585 9.2195 1.15591 9.19373 1.33448 9.15653C1.69193 9.08206 2.20197 8.96213 2.80319 8.78177C4.01092 8.41945 5.56035 7.82098 6.97767 6.8761C8.32746 5.97624 9.38135 4.47737 10.1103 3.141C10.4697 2.48197 10.7397 1.88201 10.9194 1.44775C11.0091 1.23097 11.0759 1.05643 11.1198 0.937624C11.1417 0.878244 11.1579 0.832863 11.1683 0.803172L11.1796 0.770641L11.182 0.763617L11.1823 0.762695C11.1822 0.762823 11.1822 0.762968 11.8937 1.00014C12.6052 1.23731 12.6052 1.23749 12.6051 1.23769L12.6049 1.23817L12.6045 1.23943L12.6032 1.2432L12.599 1.25558L12.5839 1.29916C12.5709 1.33636 12.5519 1.38961 12.527 1.45719C12.4771 1.59228 12.4033 1.78493 12.3055 2.02128C12.1102 2.49326 11.8176 3.14331 11.4271 3.85928C10.656 5.27291 9.45994 7.02404 7.80972 8.12418C7.14519 8.5672 6.45986 8.93908 5.79271 9.25014H30.8937V10.7501H5.79271C6.45986 11.0612 7.14519 11.4331 7.80972 11.8761C9.45994 12.9762 10.656 14.7274 11.4271 16.141C11.8176 16.857 12.1102 17.507 12.3055 17.979C12.4033 18.2153 12.4771 18.408 12.527 18.5431C12.5519 18.6107 12.5709 18.6639 12.5839 18.7011L12.599 18.7447L12.6032 18.7571L12.6045 18.7608L12.6049 18.7621L12.6051 18.7626C12.6052 18.7628 12.6052 18.763 11.8937 19.0001C11.1822 19.2373 11.1822 19.2375 11.1823 19.2376L11.182 19.2367L11.1796 19.2296L11.1683 19.1971C11.1579 19.1674 11.1417 19.122 11.1198 19.0627C11.0759 18.9438 11.0091 18.7693 10.9194 18.5525C10.7397 18.1183 10.4697 17.5183 10.1103 16.8593C9.38135 15.5229 8.32746 14.024 6.97767 13.1242C5.56035 12.1793 4.01092 11.5808 2.80319 11.2185C2.20197 11.0381 1.69193 10.9182 1.33448 10.8438C1.15591 10.8065 1.01585 10.7808 0.922043 10.7645C0.87515 10.7564 0.839852 10.7507 0.817118 10.7471L0.792575 10.7433L0.787608 10.7426L0.787354 10.7426L0.78785 10.7395L0.840398 10.0001Z" fill="#213721"/>
</svg>
