<svg width="31" height="20" viewBox="0 0 31 20" fill="none" xmlns="http://www.w3.org/2000/svg">
<path fill-rule="evenodd" clip-rule="evenodd" d="M30.947 10.0001L30.9995 9.26074L31 9.25772L30.9997 9.25768L30.9948 9.25694L30.9702 9.25316C30.9475 9.24958 30.9122 9.24385 30.8653 9.23574C30.7715 9.2195 30.6314 9.19373 30.4529 9.15653C30.0954 9.08206 29.5854 8.96213 28.9842 8.78177C27.7764 8.41945 26.227 7.82098 24.8097 6.8761C23.4599 5.97624 22.406 4.47737 21.6771 3.141C21.3176 2.48197 21.0476 1.88201 20.8679 1.44775C20.7782 1.23097 20.7114 1.05643 20.6675 0.937624C20.6456 0.878244 20.6294 0.832863 20.619 0.803172L20.6078 0.770641L20.6054 0.763617L20.6051 0.762695C20.6051 0.762823 20.6052 0.762968 19.8937 1.00014C19.1821 1.23731 19.1822 1.23749 19.1823 1.23769L19.1824 1.23817L19.1829 1.23943L19.1841 1.2432L19.1883 1.25558L19.2034 1.29916C19.2165 1.33636 19.2354 1.38961 19.2604 1.45719C19.3103 1.59228 19.3841 1.78493 19.4819 2.02128C19.6772 2.49326 19.9697 3.14331 20.3602 3.85928C21.1313 5.27291 22.3274 7.02404 23.9776 8.12418C24.6422 8.5672 25.3275 8.93908 25.9946 9.25014H0.893654V10.7501H25.9946C25.3275 11.0612 24.6422 11.4331 23.9776 11.8761C22.3274 12.9762 21.1313 14.7274 20.3602 16.141C19.9697 16.857 19.6772 17.507 19.4819 17.979C19.3841 18.2153 19.3103 18.408 19.2604 18.5431C19.2354 18.6107 19.2165 18.6639 19.2034 18.7011L19.1883 18.7447L19.1841 18.7571L19.1829 18.7608L19.1824 18.7621L19.1823 18.7626C19.1822 18.7628 19.1821 18.763 19.8937 19.0001C20.6052 19.2373 20.6051 19.2375 20.6051 19.2376L20.6054 19.2367L20.6078 19.2296L20.619 19.1971C20.6294 19.1674 20.6456 19.122 20.6675 19.0627C20.7114 18.9438 20.7782 18.7693 20.8679 18.5525C21.0476 18.1183 21.3176 17.5183 21.6771 16.8593C22.406 15.5229 23.4599 14.024 24.8097 13.1242C26.227 12.1793 27.7764 11.5808 28.9842 11.2185C29.5854 11.0381 30.0954 10.9182 30.4529 10.8438C30.6314 10.8065 30.7715 10.7808 30.8653 10.7645C30.9122 10.7564 30.9475 10.7507 30.9702 10.7471L30.9948 10.7433L30.9997 10.7426L31 10.7426L30.9995 10.7395L30.947 10.0001Z" fill="#213721"/>
</svg>
