<svg width="48" height="48" viewBox="0 0 48 48" fill="none" xmlns="http://www.w3.org/2000/svg">
<rect width="48" height="48" rx="24" fill="#E4ECE0"/>
<path d="M36.6932 17.938C38.2072 21.0988 38.4885 24.7105 37.482 28.0676C36.4756 31.4247 34.2537 34.286 31.2504 36.0925C28.2472 37.899 24.6783 38.5209 21.241 37.8368C17.8037 37.1527 14.7449 35.2117 12.6622 32.393C10.5794 29.5742 9.6224 26.0803 9.97799 22.5936C10.3336 19.107 11.9763 15.8782 14.5852 13.5379C17.1941 11.1977 20.5817 9.91417 24.0863 9.93806C27.591 9.96196 30.9608 11.2916 33.5375 13.6672L37.1024 10.1023C37.1547 10.0501 37.2167 10.0086 37.285 9.98034C37.3533 9.95206 37.4265 9.9375 37.5004 9.9375C37.5743 9.9375 37.6475 9.95206 37.7157 9.98034C37.784 10.0086 37.8461 10.0501 37.8983 10.1023C37.9506 10.1546 37.992 10.2166 38.0203 10.2849C38.0486 10.3532 38.0632 10.4264 38.0632 10.5003C38.0632 10.5742 38.0486 10.6474 38.0203 10.7157C37.992 10.784 37.9506 10.846 37.8983 10.8983L24.3983 24.3983C24.2928 24.5038 24.1496 24.5631 24.0004 24.5631C23.8511 24.5631 23.7079 24.5038 23.6024 24.3983C23.4968 24.2927 23.4375 24.1496 23.4375 24.0003C23.4375 23.851 23.4968 23.7079 23.6024 23.6023L27.9618 19.243C26.8684 18.333 25.4949 17.8275 24.0725 17.8116C22.6502 17.7957 21.2657 18.2704 20.1523 19.1558C19.039 20.0411 18.2647 21.2831 17.9598 22.6725C17.6549 24.0619 17.838 25.514 18.4784 26.7842C19.1188 28.0544 20.1773 29.0651 21.4756 29.6463C22.774 30.2274 24.2329 30.3435 25.6068 29.9749C26.9807 29.6063 28.1857 28.7755 29.0188 27.6225C29.8519 26.4695 30.2623 25.0647 30.1808 23.6445C30.1766 23.5707 30.1869 23.4967 30.2113 23.4268C30.2356 23.3569 30.2735 23.2925 30.3227 23.2373C30.3719 23.1821 30.4316 23.1371 30.4982 23.1049C30.5648 23.0727 30.6371 23.0539 30.711 23.0497C30.7849 23.0454 30.8588 23.0558 30.9287 23.0801C30.9986 23.1045 31.063 23.1423 31.1182 23.1916C31.1734 23.2408 31.2184 23.3004 31.2506 23.367C31.2828 23.4337 31.3016 23.506 31.3058 23.5798C31.4029 25.2626 30.9157 26.9272 29.9266 28.2921C28.9375 29.6569 27.5072 30.6381 25.8778 31.0697C24.2485 31.5013 22.52 31.3568 20.985 30.6605C19.4499 29.9643 18.2026 28.7591 17.4539 27.249C16.7052 25.7388 16.5012 24.0164 16.8765 22.3731C17.2517 20.7299 18.1831 19.2667 19.5131 18.2312C20.843 17.1956 22.4899 16.6514 24.175 16.6905C25.8601 16.7295 27.48 17.3496 28.7605 18.4456L32.7458 14.4617C30.2498 12.1906 26.9652 10.9846 23.5925 11.1011C20.2199 11.2175 17.0263 12.6471 14.6928 15.085C12.3593 17.5228 11.0708 20.7759 11.102 24.1504C11.1331 27.5249 12.4816 30.7537 14.8597 33.148C17.0193 35.2995 19.8693 36.6194 22.907 36.8748C25.9448 37.1302 28.9751 36.3047 31.4636 34.5439C33.9521 32.7831 35.7389 30.2002 36.5089 27.2505C37.2789 24.3009 36.9826 21.1742 35.6722 18.4217C35.6383 18.3548 35.6181 18.2818 35.6129 18.2069C35.6076 18.1321 35.6174 18.057 35.6416 17.986C35.6658 17.9149 35.704 17.8495 35.7539 17.7935C35.8037 17.7374 35.8643 17.6919 35.9321 17.6597C35.9998 17.6274 36.0733 17.609 36.1482 17.6056C36.2232 17.6021 36.298 17.6137 36.3684 17.6396C36.4388 17.6656 36.5033 17.7053 36.5581 17.7566C36.6129 17.8078 36.6569 17.8695 36.6875 17.938H36.6932Z" fill="#3C5E39"/>
</svg>
