<svg width="572" height="539" viewBox="0 0 572 539" fill="none" xmlns="http://www.w3.org/2000/svg">
<path d="M284.536 67.1412C284.838 64.1732 286.861 61.6516 289.172 59.7605C291.484 57.8693 294.123 56.4247 296.382 54.481C297.853 53.2202 299.153 51.7493 300.716 50.6068C302.962 48.9783 305.641 48.0852 308.294 47.3104C316.725 44.8545 325.616 43.2654 334.297 44.605C342.978 45.9445 351.475 50.5805 355.836 58.2108C356.571 59.4978 357.188 60.8505 357.976 62.0981C361.575 67.7585 368.522 70.7659 371.621 76.7021C373.394 80.0773 373.696 83.9909 373.972 87.7863C374.537 95.5348 374.878 104.045 370.177 110.218C369.257 111.426 368.167 112.503 367.314 113.75C363.203 119.778 365.055 128.801 360.064 134.107C357.687 136.641 354.194 137.771 350.806 138.532C339.393 141.106 327.311 140.581 316.174 137.022C316.896 139.071 317.238 140.358 319.234 141.225C323.778 143.221 328.322 145.23 332.866 147.226C335.913 148.566 339.209 150.142 340.654 153.136C341.258 154.384 341.481 155.776 341.744 157.142C342.256 159.834 342.913 162.54 344.252 164.943C345.382 166.965 346.958 168.738 347.732 170.918C348.52 173.151 348.363 175.594 348.205 177.971C347.982 181.293 347.746 184.629 347.522 187.952C346.944 196.423 345.973 205.747 339.8 211.578C337.568 213.693 334.823 215.15 332.104 216.595C328.795 218.355 325.498 220.102 322.189 221.861C321.099 222.439 320.022 223.017 318.879 223.49C317.408 224.107 315.859 224.554 314.309 224.974C307.27 226.839 299.784 228.008 292.745 226.143C288.897 225.132 285.338 223.253 281.831 221.402C287.189 225.092 291.234 231.055 292.508 237.437C293.217 240.983 292.377 244.634 291.484 248.141C289.343 256.598 286.178 265.883 278.416 269.863C274.687 271.78 270.143 272.266 267.07 275.129C265.835 276.272 264.889 277.756 263.392 278.53C261.212 279.647 258.546 278.898 256.13 279.279C253.884 279.634 251.927 280.921 249.839 281.814C243.929 284.322 237.008 283.482 231.098 280.947C225.188 278.425 220.08 274.367 215.063 270.335C212.988 268.667 210.886 266.973 209.429 264.754C208.01 262.6 207.275 260.078 206.553 257.596C204.688 251.095 202.797 244.529 202.534 237.779C202.271 231.028 203.768 223.963 208.023 218.723C209.586 216.792 211.477 215.164 213.408 213.588C216.915 210.725 220.631 207.993 224.939 206.588C226.331 206.141 227.762 205.826 229.076 205.182C230.652 204.408 231.952 203.199 233.383 202.201C238.072 198.918 244.126 197.894 249.773 198.774C255.421 199.653 260.7 202.293 265.257 205.747C262.539 200.166 262.263 192.942 261.711 186.77C261.396 183.25 261.094 179.744 260.779 176.224C260.122 168.843 259.61 160.845 263.589 154.594C264.732 152.795 266.203 151.232 267.66 149.669C270.563 146.583 273.505 143.457 276.959 141.001C283.131 136.589 290.893 134.461 298.457 135.078C292.114 128.381 285.403 123.613 279.073 116.929C276.67 114.394 274.24 111.82 272.638 108.72C271.036 105.621 270.326 101.891 271.535 98.6211C272.362 96.4016 273.991 94.5893 275.291 92.6062C280.294 84.989 283.604 76.2161 284.523 67.1544L284.536 67.1412Z" fill="#E4ECE0"/>
<path d="M281.962 46.4178C279.283 41.6505 275.081 37.6843 273.386 32.4836C270.392 23.2643 276.013 12.482 271.771 3.76172C276.486 9.43519 282.527 13.8347 287.728 19.0617C292.928 24.2886 297.42 30.8551 297.722 38.2228C297.919 43.3184 296.054 48.3483 293.125 52.5246C291.694 54.5734 290.013 56.4514 288.568 58.5002C287.754 59.6559 286.138 64.2393 285.075 62.3481C284.274 60.9166 285.167 56.2676 284.825 54.3764C284.313 51.5791 283.354 48.8737 281.962 46.4046V46.4178Z" fill="#C8D8C0"/>
<path d="M259.452 166.546C259.006 164.366 258.559 162.16 257.745 160.085C256.799 157.707 255.394 155.527 253.766 153.557C250.193 149.21 245.623 145.809 240.987 142.618C238.584 140.963 236.075 139.269 234.565 136.773C235.485 139.794 236.049 142.907 236.259 146.058C236.443 148.79 236.364 151.574 236.969 154.24C238.19 159.664 242.064 164.051 245.794 168.175C248.145 170.775 250.482 173.362 252.833 175.962C250.535 174.964 248.171 174.098 245.768 173.375C241.25 172.022 236.154 171.248 231.991 173.467C229.286 174.912 227.355 177.433 225.044 179.443C220.263 183.593 213.434 185.97 210.926 191.788C220.171 193.784 229.745 195.517 239.044 193.823C247.055 192.366 254.317 188.465 261.304 184.446C263.116 183.409 264.705 183.08 264.311 180.822C264.075 179.469 263.182 178.339 262.499 177.21C260.555 173.979 260.175 170.21 259.426 166.546H259.452Z" fill="#C8D8C0"/>
<path d="M222.549 289.287C223.494 291.191 224.742 292.924 225.727 294.816C228.064 299.307 228.813 304.521 228.353 309.551C227.894 314.581 226.252 319.466 224.019 324.01C224.427 319.742 221.734 315.789 218.727 312.729C215.719 309.669 212.213 306.937 210.217 303.142C208.339 299.557 208.01 295.302 208.628 291.296C209.232 287.29 210.716 283.482 212.292 279.739C213.106 277.808 213.973 275.694 213.447 273.671C212.134 277.244 210.571 281.118 207.209 282.917C205.646 283.758 203.86 284.033 202.14 284.427C197.832 285.399 193.722 287.107 189.44 288.183C185.159 289.26 180.536 289.694 176.399 288.144C173.3 286.975 170.699 284.795 168.178 282.641C165.761 280.579 163.332 278.518 160.915 276.469C162.045 277.69 163.857 278.11 165.512 277.94C167.167 277.769 168.743 277.099 170.266 276.442C174.889 274.446 179.512 272.463 184.134 270.467C192.132 267.026 200.643 263.612 209.429 266.12C214.918 267.683 216.455 271.386 218.149 276.442C219.567 280.698 220.552 285.268 222.562 289.287H222.549Z" fill="#C8D8C0"/>
<path d="M433.767 265.712C437.746 262.731 441.266 259.133 444.181 255.114C446.374 252.08 448.226 248.797 450.525 245.842C452.823 242.887 455.646 240.182 459.14 238.855C460.9 238.185 463.237 238.028 464.367 239.551C464.761 240.09 464.945 240.76 465.089 241.416C465.601 243.675 465.93 246.026 465.536 248.298C465.142 250.57 463.933 252.803 461.963 254.011C464.446 254.746 466.836 256.559 468.674 258.384C470.513 260.21 471.629 262.902 471.038 265.423C470.198 268.982 466.415 270.979 462.883 271.911C455.673 273.815 448.069 273.159 440.635 272.489C439.348 272.371 438.035 272.253 436.879 271.675C434.673 270.585 433.071 268.089 433.793 265.725L433.767 265.712Z" fill="#E4ECE0"/>
<path d="M283.223 81.8245C283.748 79.9464 283.459 77.924 283.788 76.0065C284.654 70.8847 289.474 67.5095 293.992 64.9485C297.971 62.6897 302.042 60.6015 306.192 58.6972C308.018 57.8567 309.883 57.0425 311.879 56.7929C313.796 56.5434 315.74 56.8192 317.618 57.2395C325.748 59.0649 333.089 63.6221 339.091 69.3875C345.092 75.1529 349.86 82.1003 354.023 89.3103C353.97 75.8621 346.077 63.3726 336.162 54.2845C333.798 52.1176 331.224 50.0426 328.151 49.1495C325.603 48.4141 322.898 48.5323 320.245 48.7292C315.084 49.1101 309.738 49.793 305.378 52.5772C302.292 54.5472 299.928 57.4364 297.131 59.8004C293.913 62.5058 290.157 64.4757 286.44 66.4326C287.911 60.1944 292.495 55.5847 297.59 51.7105C306.363 45.052 317.027 40.5211 328.046 40.3504C339.064 40.1797 350.372 44.7499 357.096 53.4703C359.105 56.0706 360.694 58.9861 362.835 61.4683C365.961 65.093 370.242 67.7459 372.698 71.8565C375.285 76.2035 375.443 81.5224 375.535 86.5786C375.627 92.0157 375.706 97.6104 373.775 102.693C371.949 107.513 368.39 111.663 367.327 116.706C366.867 118.886 366.893 121.171 366.197 123.285C364.95 127.041 361.588 129.694 358.094 131.559C352.854 134.37 346.944 135.933 341.008 136.064C336.622 136.169 332.262 135.512 327.928 134.856C324.355 134.317 320.783 133.779 317.198 133.227C322.596 130.811 327.875 131.192 333.535 129.432C337.003 128.355 340.102 126.267 342.676 123.706C343.792 122.603 344.843 121.381 346.248 120.672C348.468 119.556 351.212 119.884 353.379 118.702C355.638 117.468 356.768 114.907 357.74 112.529C360.143 106.659 362.546 100.789 364.963 94.905C366.197 91.8712 367.471 88.7193 367.287 85.4623C367.077 81.7719 365.068 78.4624 363.452 75.1266C360.891 69.8078 359.21 63.9242 355.349 59.4458C351.698 55.217 346.498 52.7086 341.455 50.3052C338.001 48.6636 333.89 47.022 330.502 48.8212C326.785 47.0745 326.142 45.8925 322.031 46.0107C319.877 46.0764 317.71 46.2208 315.648 46.825C313.744 47.3897 311.984 48.3353 310.237 49.2677C307.808 50.5679 305.365 51.8812 303.146 53.5359C301.031 55.1119 299.153 56.9637 297.013 58.5002C294.255 60.4702 291.116 61.836 288.003 63.1756C289.343 58.973 289.934 55.7291 292.363 52.0519C294.425 48.9131 296.881 45.9713 298.365 42.5173C300.493 37.6056 300.48 31.8927 298.785 26.8102C297.091 21.7278 293.821 17.2625 289.789 13.7297C285.206 9.71104 279.611 6.78237 275.855 2.00195C277.155 5.57414 277.221 9.63224 277.024 13.4277C276.788 17.8666 275.514 22.3187 276.328 26.6789C277.326 32.1291 281.332 36.4367 284.05 41.2566C288.043 48.3615 289.251 56.9899 287.347 64.9091C289.448 57.8436 291.575 50.6467 291.457 43.2659C291.339 35.0315 288.318 26.8759 283.052 20.5589" stroke="#899F87" stroke-width="1.18197" stroke-linecap="round" stroke-linejoin="round"/>
<path d="M312.47 91.8449C315.661 90.2164 319.627 90.2427 322.792 91.9106C325.957 93.5784 328.23 96.8486 328.689 100.394C329.503 96.888 330.147 93.0925 328.689 89.7961C327.179 86.3553 323.449 84.1095 319.693 84.0307C315.937 83.9519 312.273 85.8694 309.87 88.7718C311.853 82.3497 317.868 77.2935 324.552 76.6894C331.237 76.0853 338.171 80.1171 340.732 86.3422C343.293 92.5672 341.074 100.46 335.518 104.242C329.963 108.038 321.624 107.119 317.211 102.049C316.712 105.621 319.956 108.708 323.357 109.955C330.488 112.582 339.261 109.496 343.188 102.995C347.115 96.494 345.762 87.3009 340.128 82.2052C342.045 82.1396 343.989 82.3629 345.775 83.0326C349.82 84.5561 352.788 88.3515 353.813 92.5541C354.837 96.7566 354.062 101.261 352.197 105.162C350.595 108.484 348.192 111.439 345.171 113.541C340.483 116.811 334.599 117.875 328.886 118.098C326.102 118.203 323.278 118.124 320.573 117.415C315.517 116.088 311.104 112.464 308.819 107.762C306.534 103.06 306.416 97.3608 308.491 92.5672C304.498 96.8223 300.44 102.259 300.125 108.09C299.81 113.922 302.463 120.042 307.479 123.023C311.826 125.61 317.198 125.61 322.241 125.19C327.625 124.743 333.22 123.824 337.528 120.58C335.177 124.297 330.646 126.752 326.351 127.698C317.749 129.589 308.123 128.696 301.189 123.272C298.72 121.342 296.645 118.86 295.344 116.01C294.254 113.633 293.729 111.032 293.466 108.419C292.6 99.9348 294.635 91.07 299.652 84.1621C304.669 77.2541 312.733 72.5131 321.256 72.0928C323.37 71.9878 325.485 72.1454 327.599 72.3029C330.817 72.5393 334.218 72.8545 336.818 74.772C328.873 67.9691 317.776 66.0779 307.44 67.7983C304.393 68.3105 301.372 69.2036 298.812 70.924C296.251 72.6444 294.162 75.2185 293.532 78.2259C293.138 80.0777 293.23 82.1658 292.009 83.6105C291.273 84.4773 290.17 84.9501 289.172 85.5016C285.35 87.6423 282.605 91.5822 281.922 95.903C281.108 101.051 283.078 106.199 285.337 110.888C286.769 113.856 288.345 116.798 290.564 119.24C294.859 123.955 301.11 126.332 307.256 128.026C310.316 128.88 313.507 129.602 316.659 129.235C310.067 131.493 302.397 131.283 296.159 128.184C289.92 125.085 284.785 120.081 280.609 114.512C278.009 111.045 275.697 107.25 274.673 103.034C273.649 98.8185 274.069 94.1038 276.551 90.5447C278.666 87.511 282.198 85.3309 283.183 81.7719" stroke="#899F87" stroke-width="1.18197" stroke-linecap="round" stroke-linejoin="round"/>
<path d="M168.926 520.179C182.335 510.539 195.757 500.9 209.166 491.26C215.47 486.729 221.786 482.185 227.355 476.774C231.925 472.335 235.944 467.358 239.752 462.249C252.82 444.69 263.694 424.781 266.504 403.085C268.304 389.203 266.728 375.138 266.99 361.138C267.253 347.151 269.617 332.521 278.088 321.384C279.979 318.889 282.802 316.407 285.849 317.116C289.198 317.904 290.485 322.002 290.617 325.456C290.945 333.467 288.397 341.307 285.377 348.74C278.941 364.5 268.737 380.483 252.518 385.644C233.199 391.804 217.361 379.642 205.475 366.024C192.71 351.393 177.594 336.973 158.42 331.563C135.542 325.101 108.921 327.649 96.3137 350.422C90.023 361.782 89.7209 375.926 94.1468 388.126C98.5857 400.327 107.424 410.636 117.996 418.175C134.308 429.798 154.992 435.116 174.875 432.792C185.526 431.544 196.348 427.92 203.821 420.224C211.293 412.528 214.537 400.13 209.468 390.674C207.091 386.248 203.216 382.847 199.263 379.748C194.089 375.676 188.507 371.881 182.177 370.082C172.577 367.363 161.204 370.095 155.097 378.001C149.003 385.907 149.844 398.804 157.868 404.74C165.892 410.676 179.656 406.447 181.77 396.689C183.635 388.035 176.99 379.971 170.2 374.284C160.442 366.102 148.78 359.339 136.054 358.682C123.328 358.026 109.644 364.894 105.481 376.937C103.025 384.042 105.27 393.603 112.415 395.954C118.036 397.805 123.932 394.562 128.962 391.449C136.777 386.59 144.683 381.652 151.039 375.007C166.418 358.919 170.476 333.06 160.784 313.032C157.605 306.465 153.167 300.621 148.938 294.685C136.855 277.73 125.942 258.753 125.022 237.95C123.972 214.166 133.848 185.444 160.455 181.347C165.026 180.638 169.951 180.822 173.956 183.146C179.774 186.521 182.401 194.506 179.735 200.679C177.069 206.851 169.438 210.397 163.003 208.454C155.99 206.352 151.814 199.208 149.358 192.313C142.831 174.058 143.855 152.822 153.863 136.235C163.87 119.635 183.267 108.59 202.573 110.35C206.644 110.718 210.781 111.663 214.182 113.948C218.687 116.969 223.612 125.518 221.393 131.021C219.37 136.051 212.121 137.351 207.55 134.436C202.98 131.52 200.879 125.807 200.655 120.383C199.999 104.978 211.727 91.6353 224.86 83.5716C233.488 78.279 243.154 74.4179 253.253 73.6562C263.352 72.8945 273.872 75.416 281.791 81.7199" stroke="#899F87" stroke-width="1.18197" stroke-linecap="round" stroke-linejoin="round"/>
<path d="M234.026 238.318C230.113 235.271 228.077 229.348 230.743 225.159C233.606 220.654 240.724 220.378 244.822 223.793C248.919 227.207 250.272 233.091 249.537 238.371C249.09 234.037 246.227 229.795 242.038 228.6C237.848 227.404 232.7 230.057 231.991 234.352C236.929 231.568 244.099 233.84 246.332 239.053C248.578 244.267 245.098 251.162 239.529 252.278C236.85 252.817 234.04 252.147 231.557 250.991C225.057 247.984 220.105 240.826 221.419 233.787C222.377 237.793 225.214 241.312 228.918 243.112C232.621 244.911 237.139 244.95 240.882 243.217C241.46 242.941 242.13 242.416 241.933 241.811C241.801 241.404 241.355 241.207 240.948 241.076C237.704 240.038 234.105 239.96 231.229 238.147C226.633 235.245 225.595 228.416 228.235 223.662C230.875 218.907 236.338 216.215 241.749 215.742C243.771 215.572 245.846 215.664 247.79 216.281C253.385 218.067 256.93 224.266 256.471 230.123C256.011 235.98 252.045 241.22 246.923 244.097C248.88 244.832 251.034 245.003 253.082 244.596C257.64 243.676 261.291 239.907 262.84 235.521C264.39 231.134 264.049 226.262 262.722 221.81C261.566 217.909 259.478 214.009 255.906 212.065C253.043 210.502 249.615 210.41 246.358 210.634C239.319 211.12 231.912 213.208 227.381 218.618C228.379 214.232 231.636 210.555 235.616 208.454C239.595 206.352 244.231 205.722 248.722 205.985C251.073 206.129 253.437 206.51 255.578 207.482C258.152 208.637 260.279 210.581 262.354 212.485C265.073 214.981 267.844 217.528 269.617 220.759C273.833 228.416 271.35 238.489 265.519 245.003C258.992 252.292 248.552 255.837 238.938 254.038C245.833 257.072 253.726 259.804 260.726 257.006C263.983 255.706 266.662 253.329 269.275 250.991C272.48 248.128 275.816 245.068 277.142 240.984C277.864 238.765 277.93 236.374 277.786 234.05C276.853 219.971 267.253 206.838 254.133 201.664C251.782 200.744 249.3 200.048 246.779 200.18C242.681 200.39 239.043 202.701 235.602 204.947C231.61 207.56 227.618 210.161 223.638 212.774C220.841 214.6 217.781 216.832 217.334 220.155C217.059 222.23 217.899 224.279 218.201 226.341C219.081 232.343 215.43 238.423 216.743 244.333C217.728 248.746 221.379 252.173 225.49 254.051C229.601 255.929 234.171 256.494 238.662 257.033C231.242 261.406 220.815 259.672 215.194 253.145C209.323 246.316 209.179 236.387 209.678 227.378C209.796 225.185 209.94 222.979 210.545 220.877C211.438 217.765 213.276 215.033 215.102 212.354C217.124 209.373 219.291 206.273 222.535 204.711C225.779 203.161 229.614 203.397 232.963 202.11C235.576 201.112 237.756 199.234 240.252 197.96C244.27 195.911 249.103 195.517 253.398 196.91C256.169 197.803 258.651 199.379 261.107 200.928C263.563 202.491 266.032 204.054 268.225 205.971C272.401 209.622 275.422 214.39 278.206 219.17C281.345 224.555 284.365 230.924 282.303 236.808C281.476 239.159 279.9 241.194 279.086 243.545C278.521 245.2 278.337 246.999 277.562 248.575C276.105 251.504 272.874 253.066 270.733 255.549C268.724 257.873 267.608 261.064 264.981 262.654C263.182 263.744 260.975 263.888 258.861 263.993C249.182 264.479 239.437 264.952 229.85 263.533C229.522 264.558 229.693 265.727 230.297 266.607C231.072 267.723 232.411 268.288 233.685 268.76C240.829 271.426 248.657 273.055 256.077 271.282C259.281 270.52 262.302 269.128 265.257 267.67C271.232 264.702 277.168 261.209 281.279 255.943C285.981 249.928 287.872 241.943 287.071 234.339C286.27 226.735 282.934 219.538 278.219 213.523C280.412 216.635 283.866 218.566 286.808 220.996C290.367 223.95 293.269 227.877 294.254 232.395C295.253 236.965 294.254 241.693 293.151 246.237C291.536 252.948 289.316 260.211 283.551 264.006C280.097 266.278 275.789 266.974 272.362 269.259C269.788 270.98 267.713 273.567 264.771 274.526C262.683 275.209 260.411 274.959 258.283 275.484C255.998 276.036 254.015 277.441 251.822 278.256C247.462 279.871 242.602 279.122 238.085 278.045C232.529 276.719 226.83 274.775 222.916 270.612C221.432 269.036 220.25 267.171 218.556 265.819C216.481 264.164 213.828 263.428 211.254 262.745C208.903 262.115 206.539 261.485 204.109 261.314C190.123 260.381 178.342 275.012 164.448 273.212C170.686 280.239 178.697 285.229 188.074 284.73C190.425 284.599 192.763 284.218 195.074 283.771C199.946 282.839 204.884 281.618 208.995 278.847C213.106 276.075 216.284 271.453 216.087 266.501C208.929 274.618 197.241 278.466 186.656 276.181C184.804 275.787 182.9 275.209 181.061 275.655C188.521 274.473 196.059 273.252 203.006 270.31C207.603 268.366 212.291 265.622 217.216 266.41C218.004 274.762 211.07 282.117 210.728 290.496C210.453 297.404 214.747 303.734 219.843 308.409C221.511 309.932 223.284 311.364 224.663 313.15C226.042 314.936 227 317.182 226.724 319.414C230.875 311.154 231.479 301.199 228.379 292.505C227.158 289.077 225.398 285.86 224.019 282.484C222.075 277.717 220.828 272.503 217.518 268.55C217.873 271.334 218.227 274.119 218.582 276.903C218.976 279.989 219.383 283.141 220.723 285.951C221.747 288.092 223.271 289.983 224.111 292.203C224.978 294.514 225.057 297.036 225.017 299.492C224.991 301.711 224.873 303.917 224.689 306.137C223.73 302.342 221.314 299.124 219.567 295.631C216.363 289.222 215.43 281.71 216.967 274.696" stroke="#899F87" stroke-width="1.18197" stroke-linecap="round" stroke-linejoin="round"/>
<path d="M300.48 174.688C302.134 172.258 305.72 171.549 308.346 172.849C310.973 174.149 312.588 177.118 312.601 180.059C312.614 183.001 311.222 185.838 309.16 187.939C312.47 187.624 315.28 184.905 316.213 181.714C317.145 178.523 316.41 174.99 314.768 172.101C312.733 168.529 309.016 165.679 304.905 165.744C300.795 165.81 296.815 169.592 297.446 173.637C295.87 170.695 294.333 167.412 294.977 164.142C295.962 159.099 301.622 156.407 306.731 155.881C309.068 155.645 311.511 155.711 313.613 156.748C316.292 158.062 318.025 160.701 319.522 163.275C322.595 168.515 325.406 174.543 324.08 180.48C322.858 185.943 317.566 190.434 311.984 190.001C306.403 189.568 301.714 183.553 303.303 178.181C301.661 181.018 299.994 183.934 299.442 187.164C298.89 190.395 299.652 194.059 302.187 196.134C306.114 199.352 311.997 197.461 316.502 195.097C319.614 193.455 322.635 191.643 325.537 189.673C326.759 188.845 327.98 187.965 328.807 186.731C330.186 184.656 330.16 181.964 329.792 179.495C328.939 173.821 326.483 168.397 322.766 164.024C326.496 164.549 329.254 167.806 330.961 171.168C333.824 176.815 334.783 183.5 333.076 189.594C331.381 195.688 326.89 201.059 320.993 203.357C315.359 205.551 309.016 204.868 303.119 203.489C300.913 202.976 298.667 202.346 296.815 201.033C294.806 199.628 293.375 197.513 292.271 195.32C290.223 191.249 289.159 186.692 289.185 182.134C289.198 178.969 289.737 175.817 290.446 172.731C291.667 167.412 293.401 162.198 295.607 157.208C292.889 160.202 290.091 163.302 288.739 167.11C287.333 171.063 287.583 175.41 286.545 179.481C285.455 183.75 282.947 187.742 283.013 192.142C283.078 196.725 286.046 200.901 289.881 203.423C293.716 205.945 298.286 207.035 302.83 207.678C308.372 208.466 314.4 208.571 319.142 205.577C309.607 212.065 296.251 212.38 286.414 206.352C281.187 203.147 277.037 198.406 273.675 193.271C272.23 191.065 270.904 188.753 270.182 186.232C268.987 182.069 269.538 177.433 271.679 173.677C274.581 168.581 280.136 165.18 282.251 159.703C282.842 158.18 283.144 156.499 284.116 155.185C285.324 153.557 287.32 152.756 289.264 152.165C296.316 150.011 303.986 149.604 311.091 151.561C318.196 153.517 324.71 157.93 328.715 164.129C327.665 159.48 325.17 155.133 321.492 152.099C317.973 149.197 313.586 147.594 309.292 146.045C306.35 144.981 303.343 143.917 300.217 143.891C295.187 143.852 290.577 146.504 286.256 149.092C282.435 151.377 278.56 153.675 275.33 156.735C272.099 159.795 269.486 163.709 268.803 168.121C268.343 171.089 268.763 174.176 268.002 177.078C267.581 178.693 266.793 180.204 266.281 181.793C264.127 188.425 266.715 195.609 269.604 201.952C270.943 204.894 272.48 207.941 275.212 209.661C277.116 210.856 279.388 211.25 281.607 211.631C284.562 212.13 287.517 212.629 290.472 213.128C294.727 213.851 299.035 214.573 303.329 214.179C313.35 213.273 321.742 206.562 329.477 200.127C331.198 198.695 332.931 197.25 334.31 195.491C338.027 190.75 338.71 184.393 339.248 178.391C339.524 175.397 339.787 172.337 339.13 169.395C338.289 165.626 335.991 162.369 333.745 159.23C331.802 156.499 329.858 153.78 327.901 151.048C331.684 153.386 334.757 156.88 336.595 160.925C337.922 163.853 338.618 167.031 339.931 169.973C341.034 172.442 342.545 174.701 343.635 177.183C346.563 183.855 346.025 191.932 342.256 198.17C340.443 201.151 337.987 203.673 335.558 206.168C332.734 209.057 329.819 212.012 326.194 213.785C318.708 217.436 309.817 215.427 301.517 216.215C295.804 216.753 289.697 218.592 284.602 215.939C287.937 219.839 292.981 221.993 298.076 222.597C303.172 223.201 308.333 222.4 313.31 221.179C320.77 219.353 328.072 216.569 334.336 212.143C340.601 207.717 345.815 201.571 348.31 194.309C349.439 191.012 350.004 187.545 350.424 184.078C350.871 180.401 351.186 176.658 350.516 173.02C349.794 169.014 347.929 165.311 345.999 161.726C343.017 156.197 339.406 150.444 333.601 148.041C330.593 146.793 327.258 146.57 324.171 145.506C321.781 144.679 319.601 143.379 317.263 142.42C310.96 139.859 303.947 140.017 297.144 140.227C295.594 140.266 293.966 140.345 292.652 141.172C291.654 141.803 290.958 142.801 290.118 143.628C286.742 146.977 281.2 147.634 278.272 151.39C278.127 147.988 279.874 144.705 282.369 142.407C284.864 140.109 288.069 138.69 291.313 137.692C300.322 134.934 310.132 135.184 319.194 137.771C328.256 140.358 336.582 145.204 343.766 151.311C343.333 148.238 340.325 146.307 337.607 144.797C334.113 142.853 330.62 140.897 327.139 138.953C324.565 137.521 321.991 136.077 319.233 135.026C314.335 133.161 309.055 132.57 303.842 132.006C301.767 131.782 299.692 131.559 297.616 131.677C292.258 131.979 287.307 134.527 282.724 137.311C277.878 140.24 273.15 143.563 269.735 148.08C263.589 156.223 262.67 167.964 267.463 176.96C263.891 173.716 263.97 168.213 263.064 163.472C261.107 153.242 253.45 144.863 244.612 139.347C242.221 137.85 239.582 136.392 238.308 133.87C240.146 139.176 238.176 144.167 239.687 149.578C240.488 152.427 242.024 155.015 243.614 157.51C248.328 164.864 254.33 172.153 262.709 174.622C258.231 173.217 253.739 171.812 249.261 170.407C247.107 169.737 244.94 169.054 242.694 168.883C239.253 168.62 235.799 169.553 232.7 171.063C231.636 171.575 230.586 172.166 229.679 172.928C228.235 174.136 227.171 175.739 225.792 177.026C224.544 178.181 223.06 179.048 221.708 180.086C219.068 182.121 217.006 184.787 214.97 187.427C223.218 190.697 232.424 191.511 241.105 189.725C247.987 188.32 254.422 185.365 260.792 182.41C262.919 181.425 265.152 180.348 266.452 178.405C264.246 176.829 261.212 177.84 258.651 178.759C249.839 181.937 240.357 183.264 231.019 182.647C234.801 180.992 238.623 179.324 242.668 178.457C245.57 177.84 248.552 177.63 251.506 177.433C256.313 177.104 261.12 176.789 265.927 176.461C263.773 173.519 261.356 170.761 258.717 168.253C257.403 167.005 256.011 165.797 254.96 164.313C253.555 162.33 252.82 159.966 251.835 157.746C250.298 154.266 248.105 151.062 245.4 148.382" stroke="#899F87" stroke-width="1.18197" stroke-linecap="round" stroke-linejoin="round"/>
<path d="M390.139 168.069C385.91 167.452 381.642 168.765 377.715 170.472C367.904 174.754 359.263 181.662 352.933 190.277C354.785 181.675 360.353 174.78 367.222 169.277C373.447 164.287 380.42 160.216 387.827 157.234C388.523 164.51 391.767 171.733 396.219 177.538C395.05 185.378 388.458 192.536 380.998 195.202C373.539 197.868 365.409 197.75 357.49 197.592C363.413 195.53 369.402 193.088 375.325 191.013C379.291 189.634 383.296 188.228 386.777 185.891C388.313 184.866 389.718 183.645 390.914 182.24C392.201 180.716 392.844 179.009 393.645 177.183C393.987 176.409 394.328 175.568 394.171 174.728" stroke="#899F87" stroke-width="1.18197" stroke-linecap="round" stroke-linejoin="round"/>
<path d="M472.771 537.003C449.473 530.331 427.305 519.693 407.487 505.746C389.797 493.296 383.624 468.383 383.362 447.803C383.112 428.393 387.682 409.271 392.726 390.53C396.429 376.754 400.316 362.202 406.463 349.384C408.643 344.827 414.868 334.899 408.695 333.861C405.977 333.401 401.301 333.861 398.543 333.979C359.276 335.542 322.608 316.013 288.187 297.049C278.875 291.914 270.523 286.32 267.213 276.22C283.236 282.104 297.446 292.111 310.421 303.209C318.327 309.972 325.892 317.208 334.468 323.092C342.098 328.332 349.754 332.561 358.961 334.124C368.167 335.687 378.148 335.306 387.709 334.846C399.318 334.295 411.046 334.321 422.393 332.088C434.436 329.711 445.652 326.861 457.156 322.462C460.098 321.332 463.027 320.124 465.732 318.509C471.484 315.068 474.951 310.103 478.524 304.627C478.931 304.01 479.285 303.379 479.587 302.71C480.835 300.004 481.111 296.997 480.599 294.068C480.507 293.556 480.402 293.044 480.27 292.545C479.522 289.629 477.998 286.858 476.737 284.126C475.424 281.29 473.993 278.505 472.128 275.997C470.42 273.699 468.109 271.821 465.456 270.652C461.989 269.128 458.115 268.774 454.333 268.761C449.184 268.748 444.036 269.325 439.019 270.494C437.732 270.796 436.261 271.309 435.854 272.569C438.731 272.793 441.62 272.28 444.496 272.083C451.561 271.597 458.877 272.937 465.588 270.731C466.888 270.297 468.175 269.719 469.16 268.761C470.499 267.447 471.156 265.517 471.064 263.639C470.972 261.761 470.197 259.962 469.068 258.464C467.413 256.297 464.997 254.735 462.331 254.144C465.364 251.714 466.192 247.367 465.706 243.519C465.509 241.943 465.049 240.262 463.815 239.251C462.107 237.859 459.546 238.24 457.563 239.198C454.149 240.84 451.588 243.834 449.473 246.986C447.359 250.138 445.573 253.513 443.169 256.429C440.884 259.2 438.1 261.485 435.539 264.007C434.948 264.598 433.569 265.674 434.37 266.568C434.646 266.87 435.053 267.027 435.447 267.132C438.783 267.999 441.449 265.701 443.866 263.718C446.282 261.735 448.554 259.449 451.207 257.729C452.074 257.177 452.98 256.678 453.925 256.284C455.908 255.47 458.036 255.116 460.032 254.354C465.299 252.358 466.31 247.249 465.522 242.14C465.299 240.682 464.813 239.225 463.893 238.069C462.685 236.559 460.86 235.718 459.218 234.681C454.53 231.752 447.32 222.756 452.494 217.529C454.424 215.585 456.683 214.009 458.706 212.184C460.728 210.358 462.58 208.165 463.302 205.525C464.025 202.885 463.394 199.747 461.227 198.092C460.256 197.343 459.047 196.949 457.865 196.647C449.066 194.402 440.346 194.454 431.809 190.777C426.083 188.321 420.62 185.116 416.063 180.888C410.298 175.543 407.041 168.792 404.414 161.53C397.742 143.038 385.962 125.19 367.996 117.219" stroke="#899F87" stroke-width="1.18197" stroke-linecap="round" stroke-linejoin="round"/>
</svg>
