<svg width="75" height="74" viewBox="0 0 75 74" fill="none" xmlns="http://www.w3.org/2000/svg">
<path fill-rule="evenodd" clip-rule="evenodd" d="M33.5905 6.10925L28.4731 9.82733H22.1477C19.423 9.82733 17.0083 11.5817 16.1664 14.173L14.2116 20.1888L9.09442 23.9069C6.89001 25.5083 5.96771 28.3471 6.80977 30.9383L8.76433 36.9542L6.80977 42.97C5.96771 45.5612 6.89001 48.3998 9.09442 50.0014L14.2116 53.7193L16.1664 59.7351C17.0083 62.3264 19.423 64.081 22.1477 64.081H28.4731L33.5905 67.7988C35.7947 69.4004 38.7794 69.4004 40.9838 67.7988L46.1011 64.081H52.4266C55.1511 64.081 57.5659 62.3264 58.4079 59.7351L60.3625 53.7193L65.4799 50.0014C67.6841 48.3998 68.6064 45.5612 67.7646 42.97L65.8098 36.9542L67.7646 30.9383C68.6064 28.3471 67.6841 25.5083 65.4799 23.9069L60.3625 20.1888L58.4079 14.173C57.5659 11.5817 55.1511 9.82733 52.4266 9.82733H46.1011L40.9838 6.10925C38.7794 4.50785 35.7947 4.50785 33.5905 6.10925ZM34.6086 7.51067C36.2059 6.35037 38.3685 6.35037 39.9655 7.51067C42.3894 9.27171 45.3106 11.3942 45.3106 11.3942C45.4586 11.5017 45.6369 11.5595 45.8198 11.5595H52.4266C54.4007 11.5595 56.1503 12.8308 56.7604 14.7082C57.6862 17.5578 58.8021 20.9918 58.8021 20.9918C58.8586 21.1658 58.9688 21.3173 59.1168 21.4248C59.1168 21.4248 62.0379 23.5471 64.4618 25.3083C66.0588 26.4686 66.7271 28.5254 66.117 30.4031C65.1912 33.2525 64.0756 36.6864 64.0756 36.6864C64.0191 36.8604 64.0191 37.0479 64.0756 37.2217C64.0756 37.2217 65.1912 40.6558 66.117 43.5052C66.7271 45.3829 66.0588 47.4397 64.4618 48.6C62.0379 50.361 59.1168 52.4833 59.1168 52.4833C58.9688 52.5908 58.8586 52.7426 58.8021 52.9165C58.8021 52.9165 57.6862 56.3505 56.7604 59.1999C56.1503 61.0775 54.4007 62.3486 52.4266 62.3486C49.4305 62.3486 45.8198 62.3486 45.8198 62.3486C45.6369 62.3486 45.4586 62.4066 45.3106 62.5141C45.3106 62.5141 42.3894 64.6364 39.9655 66.3974C38.3685 67.5579 36.2059 67.5579 34.6086 66.3974C32.1847 64.6364 29.2636 62.5141 29.2636 62.5141C29.1156 62.4066 28.9374 62.3486 28.7545 62.3486C28.7545 62.3486 25.1439 62.3486 22.1477 62.3486C20.1734 62.3486 18.4238 61.0775 17.8137 59.1999C16.8879 56.3505 15.7721 52.9165 15.7721 52.9165C15.7158 52.7426 15.6056 52.5908 15.4576 52.4833C15.4576 52.4833 12.5365 50.361 10.1125 48.6C8.51531 47.4397 7.84702 45.3829 8.45711 43.5052C9.38294 40.6558 10.4988 37.2217 10.4988 37.2217C10.5553 37.0479 10.5553 36.8604 10.4988 36.6864C10.4988 36.6864 9.38294 33.2525 8.45711 30.4031C7.84702 28.5254 8.51531 26.4686 10.1125 25.3083C12.5365 23.5471 15.4576 21.4248 15.4576 21.4248C15.6056 21.3173 15.7158 21.1658 15.7721 20.9918C15.7721 20.9918 16.8879 17.5578 17.8137 14.7082C18.4238 12.8308 20.1734 11.5595 22.1477 11.5595H28.7545C28.9374 11.5595 29.1156 11.5017 29.2636 11.3942L34.6086 7.51067Z" fill="#F2F6EF"/>
<path fill-rule="evenodd" clip-rule="evenodd" d="M28.6051 29.0886C30.0377 33.4155 34.2416 36.3335 39.2867 35.0402C43.0746 34.0692 45.5702 31.4035 47.1822 28.5311C49.5299 24.3478 49.9805 19.7546 49.9805 19.7546C50.0117 19.4384 49.8672 19.1306 49.6041 18.9526C49.3409 18.7745 49.0015 18.7547 48.7194 18.9011C45.702 20.468 43.1627 20.1294 40.6871 19.7831C38.8439 19.5249 37.0301 19.2615 35.1078 19.5744C31.9715 20.0847 29.9055 22.3304 28.9656 24.6673C28.3191 26.2745 28.2183 27.9204 28.6049 29.0886H28.6051ZM30.2493 28.5442C29.9664 27.689 30.0995 26.4898 30.5726 25.3137C31.3121 23.4754 32.9185 21.6854 35.3859 21.284C37.5965 20.9242 39.649 21.4312 41.7958 21.6734C43.7487 21.8937 45.7698 21.922 48.0149 21.1024C47.7046 22.6807 47.0334 25.2566 45.6717 27.6834C44.2742 30.1734 42.1405 32.5204 38.8566 33.3623C34.7868 34.4055 31.4051 32.0344 30.2495 28.5442H30.2493Z" fill="#F2F6EF"/>
<path fill-rule="evenodd" clip-rule="evenodd" d="M21.8306 27.9387C24.6711 29.0375 27.2842 29.5559 29.6543 29.6784C35.4971 29.9808 39.8766 27.8814 42.5772 26.0351C42.9718 25.7653 43.0732 25.2259 42.8034 24.8314C42.5336 24.4366 41.9942 24.3354 41.5996 24.6052C39.1219 26.2991 35.1043 28.2258 29.7436 27.9485C27.5357 27.8344 25.102 27.3467 22.4555 26.3232C22.0098 26.1507 21.5078 26.3727 21.3353 26.8186C21.163 27.2644 21.3848 27.7664 21.8306 27.9387Z" fill="#F2F6EF"/>
<path fill-rule="evenodd" clip-rule="evenodd" d="M18.0159 44.4323L20.5157 43.1298V52.4894C20.5157 52.9675 20.9038 53.3556 21.3817 53.3556C21.8598 53.3556 22.2478 52.9675 22.2478 52.4894V41.702C22.2478 41.3994 22.0899 41.1185 21.8309 40.9616C21.5721 40.8045 21.2501 40.7941 20.9815 40.934L17.2154 42.896C16.7916 43.117 16.6267 43.6404 16.8475 44.0642C17.0685 44.4882 17.5919 44.6531 18.0159 44.4323Z" fill="#F2F6EF"/>
<path fill-rule="evenodd" clip-rule="evenodd" d="M54.8587 41.6388L47.0182 51.4823C46.7206 51.8562 46.7823 52.4017 47.1563 52.6995C47.53 52.9972 48.0754 52.9355 48.3733 52.5615L56.2136 42.7181C56.5114 42.3441 56.4497 41.7989 56.0757 41.501C55.7018 41.2031 55.1564 41.2651 54.8587 41.6388Z" fill="#F2F6EF"/>
<path fill-rule="evenodd" clip-rule="evenodd" d="M48.2823 40.7812C47.1908 40.7812 46.3044 41.6676 46.3044 42.7591C46.3044 43.8506 47.1908 44.7369 48.2823 44.7369C49.3738 44.7369 50.2601 43.8506 50.2601 42.7591C50.2601 41.6676 49.3738 40.7812 48.2823 40.7812ZM48.2823 42.5136C48.4178 42.5136 48.5278 42.6236 48.5278 42.7591C48.5278 42.8946 48.4178 43.0046 48.2823 43.0046C48.1468 43.0046 48.0368 42.8946 48.0368 42.7591C48.0368 42.6236 48.1468 42.5136 48.2823 42.5136Z" fill="#F2F6EF"/>
<path fill-rule="evenodd" clip-rule="evenodd" d="M54.762 49.2842C53.6705 49.2842 52.7842 50.1703 52.7842 51.2618C52.7842 52.3535 53.6705 53.2396 54.762 53.2396C55.8535 53.2396 56.7399 52.3535 56.7399 51.2618C56.7399 50.1703 55.8535 49.2842 54.762 49.2842ZM54.762 51.0163C54.8975 51.0163 55.0075 51.1263 55.0075 51.2618C55.0075 51.3973 54.8975 51.5075 54.762 51.5075C54.6265 51.5075 54.5165 51.3973 54.5165 51.2618C54.5165 51.1263 54.6265 51.0163 54.762 51.0163Z" fill="#F2F6EF"/>
<path fill-rule="evenodd" clip-rule="evenodd" d="M32.7635 49.3197V44.8718C32.7635 42.6429 30.9565 40.8359 28.7276 40.8359C28.7276 40.8359 28.7276 40.8359 28.7274 40.8359C26.4986 40.8359 24.6917 42.6429 24.6917 44.8718V49.3197C24.6917 51.5487 26.4986 53.3557 28.7274 53.3557H28.7276C30.9565 53.3557 32.7635 51.5487 32.7635 49.3197ZM31.0311 44.8718V49.3197C31.0311 50.5921 29.9999 51.6235 28.7276 51.6235H28.7274C27.4552 51.6235 26.4238 50.5921 26.4238 49.32C26.4238 49.3197 26.4238 44.8718 26.4238 44.8718C26.4238 43.5995 27.4552 42.5683 28.7274 42.5683H28.7276C29.9999 42.5683 31.0311 43.5995 31.0311 44.8718Z" fill="#F2F6EF"/>
<path fill-rule="evenodd" clip-rule="evenodd" d="M43.2786 49.3197V44.8718C43.2786 42.6429 41.4718 40.8359 39.2429 40.8359H39.2427C37.0138 40.8359 35.207 42.6429 35.2068 44.8718V49.3197C35.207 51.5487 37.0138 53.3557 39.2427 53.3557H39.2429C41.4718 53.3557 43.2786 51.5487 43.2786 49.3197ZM41.5465 44.8718V49.3197C41.5465 50.5921 40.515 51.6235 39.2429 51.6235H39.2427C37.9706 51.6235 36.9391 50.5921 36.9391 49.32C36.9391 49.3197 36.9391 44.8718 36.9391 44.8718C36.9391 43.5995 37.9706 42.5683 39.2427 42.5683H39.2429C40.515 42.5683 41.5465 43.5995 41.5465 44.8718Z" fill="#F2F6EF"/>
</svg>
