<svg width="75" height="74" viewBox="0 0 75 74" fill="none" xmlns="http://www.w3.org/2000/svg">
<g clip-path="url(#clip0_549_4563)">
<path fill-rule="evenodd" clip-rule="evenodd" d="M20.7809 31.2583C16.8408 31.2583 13.6365 34.4627 13.6365 38.4024L13.6367 65.2407C13.6367 69.1805 16.8408 72.3848 20.7806 72.3848H37.6778C41.6174 72.3848 44.8217 69.1805 44.8217 65.2407L44.822 38.4024C44.822 34.4627 41.6174 31.2583 37.6776 31.2583H20.7809ZM37.6778 74.0006H20.7809C15.9506 74.0006 12.0208 70.0707 12.0208 65.2407V38.4024C12.0208 33.5722 15.9506 29.6426 20.7806 29.6426H37.6778C42.5076 29.6426 46.4374 33.5722 46.4374 38.4024V65.2407C46.4374 70.0707 42.5076 74.0006 37.6778 74.0006Z" fill="#F2F6EF"/>
<path fill-rule="evenodd" clip-rule="evenodd" d="M21.55 45.9398C20.4746 45.9398 19.5992 46.815 19.5992 47.8903L19.5996 55.7515C19.5996 56.8268 20.4744 57.702 21.5499 57.702H36.9087C37.9842 57.702 38.859 56.8268 38.859 55.7515L38.8594 47.8903C38.8594 46.8148 37.984 45.9398 36.9085 45.9398H21.55ZM36.9087 59.3176H21.55C19.5844 59.3176 17.9836 57.7172 17.9836 55.7515L17.9838 47.8903C17.9838 45.9246 19.5842 44.3242 21.5499 44.3242H36.9087C38.8744 44.3242 40.4748 45.9246 40.4748 47.8903L40.4751 55.7515C40.4751 57.7172 38.8742 59.3176 36.9087 59.3176Z" fill="#F2F6EF"/>
<path fill-rule="evenodd" clip-rule="evenodd" d="M36.0335 31.2584C35.5874 31.2584 35.2253 30.8965 35.2253 30.4504V15.8306H23.2311V30.4504C23.2311 30.8965 22.8708 31.2584 22.4232 31.2584C21.9775 31.2584 21.6152 30.8965 21.6152 30.4504L21.6154 15.0228C21.6154 14.5767 21.9771 14.2148 22.4232 14.2148H36.0335C36.4811 14.2148 36.8411 14.5767 36.8411 15.0228L36.8412 30.4504C36.8412 30.8965 36.4809 31.2584 36.0335 31.2584Z" fill="#F2F6EF"/>
<path fill-rule="evenodd" clip-rule="evenodd" d="M36.035 20.9732H22.4235C21.9775 20.9732 21.6152 20.6113 21.6152 20.1652C21.6154 19.7176 21.9771 19.3574 22.4232 19.3574H36.035C36.4811 19.3574 36.8428 19.7176 36.8428 20.1652C36.8428 20.6113 36.4809 20.9732 36.035 20.9732Z" fill="#F2F6EF"/>
<path fill-rule="evenodd" clip-rule="evenodd" d="M36.035 26.1146H22.4235C21.9775 26.1146 21.6152 25.7529 21.6152 25.3068C21.6154 24.8608 21.9771 24.499 22.4232 24.499H36.035C36.4811 24.499 36.8428 24.8608 36.8428 25.3068C36.8428 25.7529 36.4809 26.1146 36.035 26.1146Z" fill="#F2F6EF"/>
<path fill-rule="evenodd" clip-rule="evenodd" d="M45.2258 17.6664C44.869 17.6681 44.5425 17.4291 44.4448 17.0689L41.4595 5.92431C41.0858 4.52912 41.1596 3.23653 41.6729 2.18652C42.1729 1.16654 43.0631 0.439503 44.1806 0.140084C45.2999 -0.159677 46.4341 0.0255394 47.3765 0.658349C48.346 1.3096 49.0561 2.39341 49.4298 3.7886L52.4155 14.9332C52.5317 15.3641 52.2756 15.8067 51.8448 15.9211C51.4143 16.0373 50.9713 15.7814 50.8552 15.3506L47.8695 4.20598C47.5988 3.19283 47.1157 2.43046 46.4743 1.99976C45.9175 1.62438 45.2695 1.52178 44.5996 1.70188C43.93 1.88027 43.4199 2.29423 43.1237 2.89666C42.7855 3.59007 42.7483 4.49208 43.0209 5.50523L46.0066 16.6498C46.1213 17.0807 45.8653 17.5233 45.4344 17.6394C45.3654 17.6578 45.2946 17.6664 45.2258 17.6664Z" fill="#F2F6EF"/>
<path fill-rule="evenodd" clip-rule="evenodd" d="M44.916 16.9421H44.9179H44.916ZM52.9473 15.7338C52.6881 15.7338 52.4205 15.7675 52.1545 15.8381L45.1251 17.7214C43.8558 18.063 42.9974 19.1519 43.2516 20.1012L44.5681 25.0153L56.2829 21.875L54.9671 16.9607C54.7667 16.2118 53.9199 15.7338 52.9473 15.7338ZM43.9974 26.8112C43.8558 26.8112 43.7161 26.7758 43.5932 26.7035C43.4066 26.5957 43.2718 26.4206 43.2163 26.2137L41.6898 20.5186C41.2021 18.6925 42.5548 16.7386 44.7074 16.1613L51.7354 14.2781C53.8897 13.7007 56.0388 14.7173 56.5285 16.5433L58.0534 22.2369C58.1693 22.6676 57.9136 23.112 57.4828 23.2263L44.2061 26.7842C44.1371 26.8026 44.0661 26.8112 43.9974 26.8112Z" fill="#F2F6EF"/>
<path fill-rule="evenodd" clip-rule="evenodd" d="M59.0834 56.5627C58.8342 56.5627 58.5952 56.4482 58.4404 56.2445L54.2615 50.7531C54.2027 50.674 54.1589 50.5865 54.1302 50.4939L46.6495 25.315C46.5216 24.8876 46.7656 24.4383 47.193 24.312C47.6223 24.1841 48.0716 24.4282 48.1978 24.8557L55.6368 49.8913L58.5313 53.6966L59.1357 48.954L53.06 23.553C52.9573 23.1187 53.2248 22.6829 53.6573 22.5786C54.0918 22.4758 54.5274 22.7435 54.6317 23.1778L60.7413 48.7217C60.7647 48.8161 60.7695 48.9152 60.7577 49.0112L59.8844 55.8575C59.8422 56.1824 59.6083 56.4516 59.2919 56.5358C59.2231 56.5542 59.1522 56.5627 59.0834 56.5627Z" fill="#F2F6EF"/>
<path fill-rule="evenodd" clip-rule="evenodd" d="M59.075 63.729C59.0311 63.8164 58.9856 63.9057 58.9402 63.9965C58.0818 65.7013 56.2961 69.249 56.4779 70.2251H56.4782C56.7123 71.4772 57.8075 72.3843 59.0832 72.3843C60.3743 72.3843 61.4712 71.4639 61.6933 70.1948C61.8401 69.3517 60.0981 65.809 59.2616 64.1059C59.1978 63.978 59.1353 63.8517 59.075 63.729ZM59.0834 74.0001C57.0303 74.0001 55.2679 72.5374 54.8908 70.5229H54.8912C54.6283 69.1211 55.8603 66.5226 57.4979 63.2694C57.8546 62.5608 58.1626 61.9466 58.3427 61.5376C58.4722 61.2449 58.7618 61.0547 59.0832 61.0547C59.4029 61.0547 59.694 61.2449 59.822 61.5376C60.024 61.9972 60.342 62.6435 60.7106 63.3939C62.3565 66.7414 63.5059 69.2087 63.2855 70.4726C62.9272 72.5173 61.1599 74.0001 59.0834 74.0001Z" fill="#F2F6EF"/>
</g>
<defs>
<clipPath id="clip0_549_4563">
<rect width="74" height="74" fill="white" transform="translate(0.666748)"/>
</clipPath>
</defs>
</svg>
