<svg width="74" height="74" viewBox="0 0 74 74" fill="none" xmlns="http://www.w3.org/2000/svg">
<g clip-path="url(#clip0_549_4538)">
<path d="M73.1326 42.583H0.866943C0.636951 42.583 0.416378 42.4916 0.253749 42.329C0.09112 42.1664 -0.000244141 41.9458 -0.000244141 41.7158C-0.000244141 41.4858 0.09112 41.2653 0.253749 41.1026C0.416378 40.94 0.636951 40.8486 0.866943 40.8486H73.1326C73.3626 40.8486 73.5831 40.94 73.7458 41.1026C73.9084 41.2653 73.9998 41.4858 73.9998 41.7158C73.9998 41.9458 73.9084 42.1664 73.7458 42.329C73.5831 42.4916 73.3626 42.583 73.1326 42.583Z" fill="#F2F6EF"/>
<path d="M73.1326 51.833H0.866943C0.636951 51.833 0.416378 51.7416 0.253749 51.579C0.09112 51.4164 -0.000244141 51.1958 -0.000244141 50.9658C-0.000244141 50.7358 0.09112 50.5153 0.253749 50.3526C0.416378 50.19 0.636951 50.0986 0.866943 50.0986H73.1326C73.3626 50.0986 73.5831 50.19 73.7458 50.3526C73.9084 50.5153 73.9998 50.7358 73.9998 50.9658C73.9998 51.1958 73.9084 51.4164 73.7458 51.579C73.5831 51.7416 73.3626 51.833 73.1326 51.833Z" fill="#F2F6EF"/>
<path d="M9.23584 64.1377C8.54979 64.1377 7.87914 63.9343 7.30871 63.5531C6.73827 63.172 6.29368 62.6302 6.03113 61.9964C5.76859 61.3626 5.6999 60.6651 5.83374 59.9922C5.96758 59.3194 6.29795 58.7013 6.78306 58.2162C7.26818 57.7311 7.88625 57.4007 8.55912 57.2668C9.23199 57.133 9.92944 57.2017 10.5633 57.4642C11.1971 57.7268 11.7388 58.1714 12.12 58.7418C12.5012 59.3122 12.7046 59.9829 12.7046 60.6689C12.7037 61.5887 12.338 62.4705 11.6877 63.1208C11.0374 63.7711 10.1556 64.1369 9.23584 64.1377ZM9.23584 58.9363C8.89281 58.9363 8.55749 59.038 8.27227 59.2286C7.98706 59.4192 7.76476 59.69 7.63349 60.007C7.50222 60.3239 7.46787 60.6726 7.53479 61.009C7.60171 61.3455 7.7669 61.6545 8.00945 61.8971C8.25201 62.1396 8.56105 62.3048 8.89748 62.3717C9.23392 62.4387 9.58264 62.4043 9.89956 62.273C10.2165 62.1418 10.4873 61.9195 10.6779 61.6343C10.8685 61.349 10.9702 61.0137 10.9702 60.6707C10.9702 60.2107 10.7875 59.7696 10.4622 59.4443C10.137 59.119 9.69583 58.9363 9.23584 58.9363Z" fill="#F2F6EF"/>
<path d="M18.4998 72.9336C17.8137 72.9336 17.1431 72.7302 16.5726 72.349C16.0022 71.9679 15.5576 71.4261 15.2951 70.7923C15.0325 70.1584 14.9638 69.461 15.0977 68.7881C15.2315 68.1153 15.5619 67.4972 16.047 67.0121C16.5321 66.527 17.1502 66.1966 17.823 66.0627C18.4959 65.9289 19.1934 65.9976 19.8272 66.2601C20.461 66.5227 21.0028 66.9673 21.3839 67.5377C21.7651 68.1081 21.9685 68.7788 21.9685 69.4648C21.9677 70.3846 21.6019 71.2664 20.9516 71.9167C20.3013 72.567 19.4195 72.9328 18.4998 72.9336ZM18.4998 67.7305C18.1567 67.7305 17.8214 67.8322 17.5362 68.0228C17.251 68.2133 17.0287 68.4842 16.8974 68.8011C16.7661 69.118 16.7318 69.4668 16.7987 69.8032C16.8656 70.1396 17.0308 70.4487 17.2734 70.6912C17.5159 70.9338 17.825 71.099 18.1614 71.1659C18.4978 71.2328 18.8466 71.1985 19.1635 71.0672C19.4804 70.9359 19.7513 70.7136 19.9418 70.4284C20.1324 70.1432 20.2341 69.8079 20.2341 69.4648C20.2337 69.0051 20.0509 68.5643 19.7256 68.2394C19.4004 67.9144 18.9595 67.7319 18.4998 67.7319V67.7305Z" fill="#F2F6EF"/>
<path d="M36.9998 72.9336C36.3137 72.9336 35.6431 72.7302 35.0726 72.349C34.5022 71.9679 34.0576 71.4261 33.7951 70.7923C33.5325 70.1584 33.4638 69.461 33.5977 68.7881C33.7315 68.1153 34.0619 67.4972 34.547 67.0121C35.0321 66.527 35.6502 66.1966 36.323 66.0627C36.9959 65.9289 37.6934 65.9976 38.3272 66.2601C38.961 66.5227 39.5028 66.9673 39.8839 67.5377C40.2651 68.1081 40.4685 68.7788 40.4685 69.4648C40.4677 70.3846 40.1019 71.2664 39.4516 71.9167C38.8013 72.567 37.9195 72.9328 36.9998 72.9336ZM36.9998 67.7305C36.6567 67.7305 36.3214 67.8322 36.0362 68.0228C35.751 68.2133 35.5287 68.4842 35.3974 68.8011C35.2661 69.118 35.2318 69.4668 35.2987 69.8032C35.3656 70.1396 35.5308 70.4487 35.7734 70.6912C36.0159 70.9338 36.325 71.099 36.6614 71.1659C36.9978 71.2328 37.3466 71.1985 37.6635 71.0672C37.9804 70.9359 38.2513 70.7136 38.4418 70.4284C38.6324 70.1432 38.7341 69.8079 38.7341 69.4648C38.7337 69.0051 38.5509 68.5643 38.2256 68.2394C37.9004 67.9144 37.4595 67.7319 36.9998 67.7319V67.7305Z" fill="#F2F6EF"/>
<path d="M55.4998 72.9336C54.8137 72.9336 54.1431 72.7302 53.5726 72.349C53.0022 71.9679 52.5576 71.4261 52.2951 70.7923C52.0325 70.1584 51.9638 69.461 52.0977 68.7881C52.2315 68.1153 52.5619 67.4972 53.047 67.0121C53.5321 66.527 54.1502 66.1966 54.823 66.0627C55.4959 65.9289 56.1934 65.9976 56.8272 66.2601C57.461 66.5227 58.0028 66.9673 58.3839 67.5377C58.7651 68.1081 58.9685 68.7788 58.9685 69.4648C58.9677 70.3846 58.6019 71.2664 57.9516 71.9167C57.3013 72.567 56.4195 72.9328 55.4998 72.9336ZM55.4998 67.7305C55.1567 67.7305 54.8214 67.8322 54.5362 68.0228C54.251 68.2133 54.0287 68.4842 53.8974 68.8011C53.7661 69.118 53.7318 69.4668 53.7987 69.8032C53.8656 70.1396 54.0308 70.4487 54.2734 70.6912C54.5159 70.9338 54.825 71.099 55.1614 71.1659C55.4978 71.2328 55.8466 71.1985 56.1635 71.0672C56.4804 70.9359 56.7513 70.7136 56.9418 70.4284C57.1324 70.1432 57.2341 69.8079 57.2341 69.4648C57.2337 69.0051 57.0509 68.5643 56.7256 68.2394C56.4004 67.9144 55.9595 67.7319 55.4998 67.7319V67.7305Z" fill="#F2F6EF"/>
<path d="M27.7498 64.1377C27.0637 64.1377 26.3931 63.9343 25.8226 63.5531C25.2522 63.172 24.8076 62.6302 24.5451 61.9964C24.2825 61.3626 24.2138 60.6651 24.3477 59.9922C24.4815 59.3194 24.8119 58.7013 25.297 58.2162C25.7821 57.7311 26.4002 57.4007 27.073 57.2668C27.7459 57.133 28.4434 57.2017 29.0772 57.4642C29.711 57.7268 30.2528 58.1714 30.6339 58.7418C31.0151 59.3122 31.2185 59.9829 31.2185 60.6689C31.2177 61.5887 30.8519 62.4705 30.2016 63.1208C29.5513 63.7711 28.6695 64.1369 27.7498 64.1377ZM27.7498 58.9363C27.4067 58.9363 27.0714 59.038 26.7862 59.2286C26.501 59.4192 26.2787 59.69 26.1474 60.007C26.0161 60.3239 25.9818 60.6726 26.0487 61.009C26.1156 61.3455 26.2808 61.6545 26.5234 61.8971C26.7659 62.1396 27.075 62.3048 27.4114 62.3717C27.7478 62.4387 28.0966 62.4043 28.4135 62.273C28.7304 62.1418 29.0013 61.9195 29.1918 61.6343C29.3824 61.349 29.4841 61.0137 29.4841 60.6707C29.4841 60.2107 29.3014 59.7696 28.9761 59.4443C28.6509 59.119 28.2097 58.9363 27.7498 58.9363Z" fill="#F2F6EF"/>
<path d="M46.2637 64.1377C45.5776 64.1377 44.907 63.9343 44.3365 63.5531C43.7661 63.172 43.3215 62.6302 43.059 61.9964C42.7964 61.3626 42.7277 60.6651 42.8616 59.9922C42.9954 59.3194 43.3258 58.7013 43.8109 58.2162C44.296 57.7311 44.9141 57.4007 45.587 57.2668C46.2598 57.133 46.9573 57.2017 47.5911 57.4642C48.2249 57.7268 48.7667 58.1714 49.1478 58.7418C49.529 59.3122 49.7324 59.9829 49.7324 60.6689C49.7316 61.5887 49.3659 62.4705 48.7155 63.1208C48.0652 63.7711 47.1834 64.1369 46.2637 64.1377ZM46.2637 58.9363C45.9206 58.9363 45.5853 59.038 45.3001 59.2286C45.0149 59.4192 44.7926 59.69 44.6613 60.007C44.5301 60.3239 44.4957 60.6726 44.5626 61.009C44.6295 61.3455 44.7947 61.6545 45.0373 61.8971C45.2798 62.1396 45.5889 62.3048 45.9253 62.3717C46.2617 62.4387 46.6105 62.4043 46.9274 62.273C47.2443 62.1418 47.5152 61.9195 47.7058 61.6343C47.8963 61.349 47.998 61.0137 47.998 60.6707C47.998 60.2107 47.8153 59.7696 47.4901 59.4443C47.1648 59.119 46.7237 58.9363 46.2637 58.9363Z" fill="#F2F6EF"/>
<path d="M64.7786 64.1377C64.0925 64.1377 63.4219 63.9343 62.8514 63.5531C62.281 63.172 61.8364 62.6302 61.5739 61.9964C61.3113 61.3626 61.2426 60.6651 61.3765 59.9922C61.5103 59.3194 61.8407 58.7013 62.3258 58.2162C62.8109 57.7311 63.429 57.4007 64.1018 57.2668C64.7747 57.133 65.4722 57.2017 66.106 57.4642C66.7398 57.7268 67.2816 58.1714 67.6627 58.7418C68.0439 59.3122 68.2473 59.9829 68.2473 60.6689C68.2465 61.5887 67.8807 62.4705 67.2304 63.1208C66.5801 63.7711 65.6983 64.1369 64.7786 64.1377ZM64.7786 58.9363C64.4355 58.9363 64.1002 59.038 63.815 59.2286C63.5298 59.4192 63.3075 59.69 63.1762 60.007C63.0449 60.3239 63.0106 60.6726 63.0775 61.009C63.1444 61.3455 63.3096 61.6545 63.5522 61.8971C63.7947 62.1396 64.1038 62.3048 64.4402 62.3717C64.7766 62.4387 65.1254 62.4043 65.4423 62.273C65.7592 62.1418 66.0301 61.9195 66.2206 61.6343C66.4112 61.349 66.5129 61.0137 66.5129 60.6707C66.5129 60.2107 66.3302 59.7696 66.005 59.4443C65.6797 59.119 65.2386 58.9363 64.7786 58.9363Z" fill="#F2F6EF"/>
<path d="M14.2535 35.9729C14.0637 35.973 13.8792 35.9109 13.7281 35.796C13.5771 35.6812 13.4679 35.5199 13.4172 35.337L13.4144 35.3266C13.4115 35.3185 13.4089 35.309 13.4057 35.2977C13.3016 34.9661 12.4839 32.5571 10.3879 31.415C9.04634 30.684 7.41602 30.6056 5.54232 31.1774C5.43272 31.2134 5.31704 31.2272 5.20206 31.2179C5.08707 31.2086 4.97509 31.1765 4.87267 31.1234C4.77025 31.0703 4.67945 30.9973 4.60559 30.9087C4.53173 30.8201 4.4763 30.7177 4.44253 30.6074C4.40876 30.497 4.39734 30.3811 4.40893 30.2663C4.42053 30.1516 4.45491 30.0403 4.51006 29.9389C4.5652 29.8376 4.64001 29.7483 4.73011 29.6763C4.8202 29.6042 4.92376 29.5509 5.03473 29.5193C6.90843 28.9458 8.21441 27.9671 8.91684 26.6102C10.0916 24.3416 9.2403 21.6898 9.23162 21.6632C9.19682 21.5537 9.1841 21.4385 9.19421 21.3241C9.20432 21.2097 9.23705 21.0984 9.29051 20.9968C9.34397 20.8951 9.41709 20.8051 9.50562 20.7319C9.59415 20.6588 9.69634 20.6039 9.80624 20.5706C9.91614 20.5372 10.0316 20.526 10.1458 20.5377C10.2601 20.5493 10.3709 20.5835 10.4718 20.6383C10.5728 20.6931 10.6618 20.7674 10.7338 20.8569C10.8058 20.9464 10.8592 21.0493 10.8911 21.1596C10.8981 21.1845 11.6771 23.8583 13.9205 25.0808C15.2618 25.8109 16.8921 25.8902 18.7655 25.3178C18.875 25.2821 18.9905 25.2686 19.1053 25.2781C19.2201 25.2875 19.3318 25.3198 19.434 25.3729C19.5362 25.426 19.6268 25.4989 19.7005 25.5874C19.7742 25.6759 19.8295 25.7782 19.8632 25.8884C19.897 25.9985 19.9084 26.1142 19.897 26.2288C19.8855 26.3434 19.8513 26.4546 19.7964 26.5558C19.7414 26.6571 19.6669 26.7463 19.5771 26.8185C19.4873 26.8906 19.3841 26.9441 19.2734 26.9759C17.3997 27.5497 16.0937 28.5284 15.3913 29.8853C14.285 32.0217 14.9756 34.4981 15.0672 34.8017L15.0707 34.8132L15.0768 34.8323C15.1201 34.9627 15.1318 35.1014 15.111 35.2372C15.0902 35.373 15.0374 35.5019 14.957 35.6133C14.8766 35.7246 14.7709 35.8153 14.6486 35.8779C14.5263 35.9404 14.3909 35.973 14.2535 35.9729ZM9.14086 29.1713C9.87434 29.2973 10.5817 29.5445 11.234 29.9029C11.942 30.2958 12.5797 30.8038 13.121 31.406C13.2323 30.6039 13.4765 29.826 13.8436 29.1042C14.1836 28.4421 14.6313 27.8412 15.1684 27.3259C14.4345 27.1998 13.7268 26.9525 13.0741 26.594C12.3658 26.2013 11.7279 25.6933 11.1866 25.0909C11.0752 25.8931 10.831 26.6711 10.4639 27.393C10.1243 28.0549 9.67722 28.6558 9.14086 29.1713Z" fill="#F2F6EF"/>
<path d="M52.566 36.192C52.4393 36.1921 52.3141 36.1645 52.1992 36.111C52.0843 36.0575 51.9826 35.9795 51.9011 35.8824C51.8196 35.7854 51.7604 35.6716 51.7276 35.5492C51.6948 35.4268 51.6892 35.2987 51.7113 35.1739C51.7136 35.1595 52.0003 33.3696 51.0366 32.0408C50.4637 31.2516 49.5352 30.7562 48.2772 30.5683C48.0719 30.5376 47.8844 30.4343 47.7488 30.2772C47.6131 30.12 47.5384 29.9194 47.5381 29.7118C47.5381 29.6686 47.5413 29.6254 47.5476 29.5826C47.5644 29.4699 47.6033 29.3617 47.6619 29.2641C47.7206 29.1664 47.7979 29.0813 47.8895 29.0135C47.981 28.9458 48.0851 28.8967 48.1956 28.8692C48.3061 28.8416 48.421 28.8361 48.5336 28.853C49.7968 29.0409 50.8331 28.8365 51.6127 28.2434C52.91 27.2562 53.1612 25.4684 53.1632 25.4519C53.1801 25.3392 53.219 25.231 53.2777 25.1334C53.3363 25.0358 53.4137 24.9507 53.5052 24.8829C53.5968 24.8152 53.7008 24.7662 53.8113 24.7386C53.9219 24.7111 54.0367 24.7056 54.1494 24.7224C54.262 24.7393 54.3702 24.7782 54.4679 24.8369C54.5655 24.8955 54.6506 24.9729 54.7183 25.0644C54.7861 25.156 54.8351 25.26 54.8626 25.3705C54.8902 25.4811 54.8957 25.5959 54.8788 25.7086C54.8762 25.7227 54.5898 27.5123 55.5535 28.8411C56.1261 29.6303 57.0546 30.1257 58.3126 30.3136C58.518 30.3442 58.7056 30.4475 58.8412 30.6047C58.9769 30.7618 59.0517 30.9625 59.052 31.1701C59.052 31.2134 59.0487 31.2566 59.0422 31.2993C59.0082 31.5268 58.8853 31.7314 58.7004 31.8683C58.5156 32.0051 58.284 32.0629 58.0565 32.0289C56.793 31.8402 55.7567 32.0454 54.9771 32.6386C53.6801 33.6257 53.4289 35.4136 53.4269 35.43C53.4012 35.6403 53.2994 35.8338 53.1409 35.9742C52.9823 36.1145 52.7778 36.192 52.566 36.192ZM51.689 30.2009C51.9748 30.4499 52.2308 30.7312 52.4519 31.0392C52.6922 31.3744 52.891 31.7375 53.0441 32.1206C53.3027 31.7991 53.5991 31.51 53.9269 31.2594C54.2281 31.0295 54.555 30.8355 54.9011 30.6813C54.6153 30.4323 54.3593 30.151 54.1382 29.843C53.8978 29.5078 53.6989 29.1447 53.5457 28.7617C53.2873 29.0832 52.9909 29.3723 52.6632 29.6228C52.362 29.8526 52.0351 30.0466 51.689 30.2009Z" fill="#F2F6EF"/>
<path d="M36.5084 16.5294C36.3873 16.5295 36.2674 16.5043 36.1567 16.4553C36.0459 16.4063 35.9466 16.3346 35.8652 16.2449C35.7838 16.1552 35.7221 16.0495 35.6841 15.9345C35.646 15.8195 35.6325 15.6978 35.6444 15.5772V15.5691C35.6444 15.5599 35.6444 15.5497 35.6467 15.5402C35.6681 15.2069 35.7667 12.7817 34.295 11.047C33.3533 9.93673 31.9299 9.30599 30.0646 9.17273C29.846 9.1571 29.6414 9.05927 29.492 8.89892C29.3426 8.73858 29.2594 8.5276 29.2593 8.30844C29.2593 8.28762 29.2593 8.26681 29.2613 8.24571C29.2689 8.13194 29.2989 8.02079 29.3497 7.9187C29.4005 7.81661 29.471 7.7256 29.5572 7.65093C29.6434 7.57626 29.7435 7.51941 29.8518 7.48367C29.9601 7.44793 30.0743 7.434 30.188 7.44269C32.0542 7.57682 33.5524 7.15363 34.6431 6.18961C36.3589 4.67116 36.5977 2.23321 36.6211 1.92594V1.91033V1.89414C36.6378 1.66472 36.745 1.45134 36.919 1.30094C37.0052 1.22646 37.1052 1.16969 37.2133 1.13387C37.3214 1.09804 37.4356 1.08386 37.5492 1.09214C37.6628 1.10041 37.7736 1.13098 37.8754 1.1821C37.9772 1.23321 38.0679 1.30388 38.1424 1.39005C38.2168 1.47623 38.2736 1.57623 38.3094 1.68435C38.3453 1.79246 38.3594 1.90658 38.3512 2.02017V2.02827C38.3512 2.03752 38.3512 2.04763 38.3489 2.05862C38.3275 2.39219 38.2289 4.81714 39.7005 6.5518C40.6423 7.66209 42.0656 8.29283 43.9309 8.42637C44.1495 8.442 44.354 8.53979 44.5034 8.70008C44.6528 8.86037 44.736 9.07127 44.7363 9.29038C44.7363 9.3112 44.7363 9.33201 44.7342 9.35311C44.7264 9.46679 44.6962 9.5778 44.6453 9.67976C44.5944 9.78172 44.5239 9.87262 44.4378 9.94724C44.3517 10.0219 44.2517 10.0787 44.1435 10.1146C44.0353 10.1504 43.9211 10.1645 43.8075 10.1561C41.9413 10.0232 40.4431 10.4452 39.3525 11.4092C37.6366 12.9277 37.3978 15.3656 37.3744 15.6729V15.6885V15.7047C37.363 15.9268 37.2668 16.1361 37.1057 16.2896C36.9446 16.443 36.7308 16.5288 36.5084 16.5294ZM34.0597 8.58767C34.6525 8.95046 35.1829 9.40649 35.6305 9.93817C36.1155 10.5185 36.5033 11.1737 36.7787 11.8781C37.1517 11.2201 37.6289 10.6269 38.1916 10.1214C38.7104 9.65902 39.3004 9.28315 39.9387 9.00826C39.3459 8.64546 38.8155 8.18944 38.3679 7.65776C37.8829 7.07741 37.4952 6.42228 37.2198 5.71786C36.8467 6.37583 36.3695 6.96905 35.8068 7.47449C35.2882 7.93686 34.6984 8.31273 34.0603 8.58767H34.0597Z" fill="#F2F6EF"/>
<path d="M14.6685 12.4561H12.9148C12.6848 12.4561 12.4642 12.3647 12.3016 12.2021C12.139 12.0394 12.0476 11.8189 12.0476 11.5889C12.0476 11.3589 12.139 11.1383 12.3016 10.9757C12.4642 10.813 12.6848 10.7217 12.9148 10.7217H14.6685C14.8985 10.7217 15.1191 10.813 15.2817 10.9757C15.4444 11.1383 15.5357 11.3589 15.5357 11.5889C15.5357 11.8189 15.4444 12.0394 15.2817 12.2021C15.1191 12.3647 14.8985 12.4561 14.6685 12.4561Z" fill="#F2F6EF"/>
<path d="M16.4475 15.9853C16.2175 15.9853 15.9969 15.8939 15.8343 15.7313C15.6717 15.5687 15.5803 15.3481 15.5803 15.1181V13.3652C15.5803 13.1352 15.6717 12.9147 15.8343 12.752C15.9969 12.5894 16.2175 12.498 16.4475 12.498C16.6775 12.498 16.8981 12.5894 17.0607 12.752C17.2233 12.9147 17.3147 13.1352 17.3147 13.3652V15.1181C17.3147 15.3481 17.2233 15.5687 17.0607 15.7313C16.8981 15.8939 16.6775 15.9853 16.4475 15.9853Z" fill="#F2F6EF"/>
<path d="M19.9766 12.4551H18.2229C17.9929 12.4551 17.7723 12.3637 17.6097 12.2011C17.4471 12.0385 17.3557 11.8179 17.3557 11.5879C17.3557 11.3579 17.4471 11.1373 17.6097 10.9747C17.7723 10.8121 17.9929 10.7207 18.2229 10.7207H19.9766C20.2066 10.7207 20.4272 10.8121 20.5898 10.9747C20.7525 11.1373 20.8438 11.3579 20.8438 11.5879C20.8438 11.8179 20.7525 12.0385 20.5898 12.2011C20.4272 12.3637 20.2066 12.4551 19.9766 12.4551Z" fill="#F2F6EF"/>
<path d="M16.4453 10.6783C16.2153 10.6783 15.9947 10.5869 15.8321 10.4243C15.6695 10.2616 15.5781 10.0411 15.5781 9.81107V8.05762C15.5781 7.82762 15.6695 7.60705 15.8321 7.44442C15.9947 7.28179 16.2153 7.19043 16.4453 7.19043C16.6753 7.19043 16.8959 7.28179 17.0585 7.44442C17.2211 7.60705 17.3125 7.82762 17.3125 8.05762V9.81107C17.3125 10.0411 17.2211 10.2616 17.0585 10.4243C16.8959 10.5869 16.6753 10.6783 16.4453 10.6783Z" fill="#F2F6EF"/>
<path d="M62.2662 18.4023H60.5798C60.3498 18.4023 60.1293 18.311 59.9666 18.1484C59.804 17.9857 59.7126 17.7651 59.7126 17.5352C59.7126 17.3052 59.804 17.0846 59.9666 16.922C60.1293 16.7593 60.3498 16.668 60.5798 16.668H62.2662C62.4962 16.668 62.7168 16.7593 62.8794 16.922C63.042 17.0846 63.1334 17.3052 63.1334 17.5352C63.1334 17.7651 63.042 17.9857 62.8794 18.1484C62.7168 18.311 62.4962 18.4023 62.2662 18.4023Z" fill="#F2F6EF"/>
<path d="M63.9753 21.798C63.7453 21.798 63.5248 21.7066 63.3621 21.544C63.1995 21.3814 63.1082 21.1608 63.1082 20.9308V19.2441C63.1082 19.0141 63.1995 18.7936 63.3621 18.6309C63.5248 18.4683 63.7453 18.377 63.9753 18.377C64.2053 18.377 64.4259 18.4683 64.5885 18.6309C64.7512 18.7936 64.8425 19.0141 64.8425 19.2441V20.9308C64.8425 21.1608 64.7512 21.3814 64.5885 21.544C64.4259 21.7066 64.2053 21.798 63.9753 21.798Z" fill="#F2F6EF"/>
<path d="M67.3703 18.4014H65.6836C65.4536 18.4014 65.233 18.31 65.0704 18.1474C64.9078 17.9847 64.8164 17.7642 64.8164 17.5342C64.8164 17.3042 64.9078 17.0836 65.0704 16.921C65.233 16.7584 65.4536 16.667 65.6836 16.667H67.3703C67.6003 16.667 67.8208 16.7584 67.9835 16.921C68.1461 17.0836 68.2375 17.3042 68.2375 17.5342C68.2375 17.7642 68.1461 17.9847 67.9835 18.1474C67.8208 18.31 67.6003 18.4014 67.3703 18.4014Z" fill="#F2F6EF"/>
<path d="M63.9746 16.6932C63.7446 16.6932 63.524 16.6019 63.3614 16.4392C63.1988 16.2766 63.1074 16.056 63.1074 15.826V14.1396C63.1074 13.9097 63.1988 13.6891 63.3614 13.5265C63.524 13.3638 63.7446 13.2725 63.9746 13.2725C64.2046 13.2725 64.4252 13.3638 64.5878 13.5265C64.7504 13.6891 64.8418 13.9097 64.8418 14.1396V15.826C64.8418 16.056 64.7504 16.2766 64.5878 16.4392C64.4252 16.6019 64.2046 16.6932 63.9746 16.6932Z" fill="#F2F6EF"/>
</g>
<defs>
<clipPath id="clip0_549_4538">
<rect width="74" height="74" fill="white" transform="translate(-0.000244141)"/>
</clipPath>
</defs>
</svg>
