<svg width="116" height="21" viewBox="0 0 116 21" fill="none" xmlns="http://www.w3.org/2000/svg">
<path d="M10 1.75L7.1563 7.5125L0.800049 8.43125L5.40005 12.9188L4.31255 19.25L10 16.2625L15.6875 19.25L14.6 12.9188L19.2 8.4375L12.8438 7.5125L10 1.75Z" fill="#3C5E39"/>
<path d="M34 1.75L31.1563 7.5125L24.8 8.43125L29.4 12.9188L28.3125 19.25L34 16.2625L39.6875 19.25L38.6 12.9188L43.2 8.4375L36.8438 7.5125L34 1.75Z" fill="#3C5E39"/>
<path d="M58 1.75L55.1563 7.5125L48.8 8.43125L53.4 12.9188L52.3125 19.25L58 16.2625L63.6875 19.25L62.6 12.9188L67.2 8.4375L60.8438 7.5125L58 1.75Z" fill="#3C5E39"/>
<path d="M82 1.75L79.1563 7.5125L72.8 8.43125L77.4 12.9188L76.3125 19.25L82 16.2625L87.6875 19.25L86.6 12.9188L91.2 8.4375L84.8438 7.5125L82 1.75Z" fill="#3C5E39"/>
<path d="M106 1.75L103.156 7.5125L96.8 8.43125L101.4 12.9188L100.313 19.25L106 16.2625L111.688 19.25L110.6 12.9188L115.2 8.4375L108.844 7.5125L106 1.75Z" fill="#3C5E39"/>
</svg>
