<svg width="31" height="19" viewBox="0 0 31 19" fill="none" xmlns="http://www.w3.org/2000/svg">
<path fill-rule="evenodd" clip-rule="evenodd" d="M30.0534 9.49965L30.1059 8.76025L30.1064 8.75723L30.1062 8.75719L30.1012 8.75645L30.0767 8.75267C30.0539 8.74909 30.0186 8.74336 29.9718 8.73525C29.8779 8.71901 29.7379 8.69324 29.5593 8.65604C29.2019 8.58157 28.6918 8.46165 28.0906 8.28128C26.8829 7.91896 25.3334 7.3205 23.9161 6.37561C22.5663 5.47575 21.5125 3.97688 20.7835 2.64051C20.4241 1.98148 20.1541 1.38153 19.9744 0.947262C19.8847 0.730485 19.8179 0.555944 19.774 0.437136C19.7521 0.377756 19.7359 0.332375 19.7255 0.302684L19.7142 0.270153L19.7118 0.263128L19.7115 0.262207C19.7116 0.262335 19.7116 0.26248 19.0001 0.499651C18.2886 0.736822 18.2886 0.737001 18.2887 0.737198L18.2889 0.737678L18.2893 0.738946L18.2906 0.742712L18.2948 0.755089L18.3099 0.798669C18.3229 0.835873 18.3419 0.889124 18.3668 0.956697C18.4167 1.09179 18.4905 1.28444 18.5883 1.52079C18.7836 1.99278 19.0761 2.64282 19.4667 3.35879C20.2377 4.77242 21.4339 6.52355 23.0841 7.62369C23.7486 8.06671 24.4339 8.43859 25.1011 8.74965H9.91821e-05V10.2497H25.1011C24.4339 10.5607 23.7486 10.9326 23.0841 11.3756C21.4339 12.4758 20.2377 14.2269 19.4667 15.6405C19.0761 16.3565 18.7836 17.0065 18.5883 17.4785C18.4905 17.7149 18.4167 17.9075 18.3668 18.0426C18.3419 18.1102 18.3229 18.1634 18.3099 18.2006L18.2948 18.2442L18.2906 18.2566L18.2893 18.2604L18.2889 18.2616L18.2887 18.2621C18.2886 18.2623 18.2886 18.2625 19.0001 18.4997C19.7116 18.7368 19.7116 18.737 19.7115 18.7371L19.7118 18.7362L19.7142 18.7291L19.7255 18.6966C19.7359 18.6669 19.7521 18.6215 19.774 18.5622C19.8179 18.4434 19.8847 18.2688 19.9744 18.052C20.1541 17.6178 20.4241 17.0178 20.7835 16.3588C21.5125 15.0224 22.5663 13.5235 23.9161 12.6237C25.3334 11.6788 26.8829 11.0803 28.0906 10.718C28.6918 10.5377 29.2019 10.4177 29.5593 10.3433C29.7379 10.3061 29.8779 10.2803 29.9718 10.2641C30.0186 10.2559 30.0539 10.2502 30.0767 10.2466L30.1012 10.2428L30.1062 10.2421L30.1064 10.2421L30.1059 10.2391L30.0534 9.49965Z" fill="#213721"/>
</svg>
