<svg width="31" height="20" viewBox="0 0 31 20" fill="none" xmlns="http://www.w3.org/2000/svg">
<path fill-rule="evenodd" clip-rule="evenodd" d="M0.0530444 9.83998L0.000496678 9.10058L0 9.09756L0.000254221 9.09752L0.00522179 9.09679L0.0297647 9.093C0.0524989 9.08942 0.0877965 9.0837 0.134689 9.07558C0.2285 9.05934 0.368556 9.03358 0.54713 8.99637C0.904577 8.9219 1.41462 8.80198 2.01583 8.62161C3.22357 8.25929 4.773 7.66083 6.19032 6.71595C7.54011 5.81609 8.59399 4.31721 9.32292 2.98084C9.68239 2.32181 9.95239 1.72186 10.1321 1.28759C10.2218 1.07082 10.2886 0.896276 10.3325 0.777468C10.3544 0.718088 10.3706 0.672707 10.381 0.643016L10.3922 0.610485L10.3946 0.60346L10.3949 0.602539C10.3949 0.602667 10.3948 0.602812 11.1063 0.839983C11.8179 1.07715 11.8178 1.07733 11.8177 1.07753L11.8176 1.07801L11.8171 1.07928L11.8159 1.08304L11.8117 1.09542L11.7966 1.139C11.7835 1.1762 11.7646 1.22946 11.7396 1.29703C11.6897 1.43213 11.6159 1.62477 11.5181 1.86112C11.3228 2.33311 11.0303 2.98315 10.6398 3.69912C9.8687 5.11275 8.67258 6.86388 7.02237 7.96402C6.35783 8.40705 5.67251 8.77892 5.00535 9.08998H30.1063V10.59H5.00535C5.67251 10.901 6.35783 11.2729 7.02237 11.7159C8.67258 12.8161 9.8687 14.5672 10.6398 15.9808C11.0303 16.6968 11.3228 17.3469 11.5181 17.8188C11.6159 18.0552 11.6897 18.2478 11.7396 18.3829C11.7646 18.4505 11.7835 18.5038 11.7966 18.541L11.8117 18.5845L11.8159 18.5969L11.8171 18.6007L11.8176 18.602L11.8177 18.6024C11.8178 18.6026 11.8179 18.6028 11.1063 18.84C10.3948 19.0772 10.3949 19.0773 10.3949 19.0774L10.3946 19.0765L10.3922 19.0695L10.381 19.0369C10.3706 19.0073 10.3544 18.9619 10.3325 18.9025C10.2886 18.7837 10.2218 18.6091 10.1321 18.3924C9.95239 17.9581 9.68239 17.3582 9.32292 16.6991C8.59399 15.3628 7.54011 13.8639 6.19032 12.964C4.773 12.0191 3.22357 11.4207 2.01583 11.0584C1.41462 10.878 0.904577 10.7581 0.54713 10.6836C0.368556 10.6464 0.2285 10.6206 0.134689 10.6044C0.0877965 10.5963 0.0524989 10.5905 0.0297647 10.587L0.00522179 10.5832L0.000254221 10.5824L0 10.5824L0.000496678 10.5794L0.0530444 9.83998Z" fill="#E4ECE0"/>
</svg>
