<svg width="141" height="44" viewBox="0 0 141 44" fill="none" xmlns="http://www.w3.org/2000/svg">
<path d="M130.88 12.6955V21.6443C130.88 22.6971 132.032 22.8616 133.15 22.8616V23.059H125.88V22.8616C126.998 22.8616 128.15 22.6971 128.15 21.6443V13.4193L121.537 1.47659C120.846 0.292191 120.287 0.226391 119.168 0.226391V0.0618896H126.472V0.226391C125.353 0.226391 124.07 0.35799 124.629 1.41079L130.321 11.7085H130.354L130.683 12.3336L136.407 1.47659C137.033 0.390891 136.144 0.226391 135.026 0.226391V0.0618896H140.355V0.226391C139.204 0.226391 137.427 0.423791 136.802 1.47659L130.88 12.6955Z" fill="#F2F6EF"/>
<path d="M100.309 5.58909L101.789 0.0289917H115.706L117.186 5.58909L117.022 5.62199L115.772 1.47659C115.443 0.555393 114.817 0.390893 113.765 0.390893H112.317C111.231 0.390893 110.113 0.390893 110.113 1.44369V21.6443C110.113 22.6971 111.264 22.8616 112.383 22.8616V23.059H105.079V22.8616C106.231 22.8616 107.382 22.6971 107.382 21.6443V1.44369C107.382 0.390893 106.263 0.390893 105.145 0.390893H103.73C102.677 0.390893 102.019 0.555393 101.723 1.47659L100.473 5.62199L100.309 5.58909Z" fill="#F2F6EF"/>
<path d="M93.6313 12.2678H93.4668C93.4668 8.68169 92.5456 8.12239 91.3941 8.12239H90.4729C89.4859 8.12239 88.4331 8.25399 87.4461 8.51719V21.6443C87.4461 22.6971 88.5647 22.6971 89.6833 22.6971H94.9144C95.9672 22.6971 96.6252 22.5655 96.9213 21.6114L98.1714 17.466L98.3359 17.4989L96.8555 23.059H82.4453V22.8945C83.5639 22.8945 84.7154 22.6971 84.7154 21.6443V9.80029C83.4652 10.7215 82.6098 12.0704 82.6098 13.9128H82.4453C82.4453 11.9059 83.3665 10.4254 84.7154 9.43839V1.47659C84.7154 0.390891 83.5639 0.226391 82.4453 0.226391V0.0618896H96.8555L98.3359 5.58909L98.1714 5.65489L96.9213 1.47659C96.6252 0.555391 95.9672 0.390891 94.9144 0.390891H89.6833C88.5647 0.390891 87.4461 0.390891 87.4461 1.47659V8.18819C88.4331 7.92499 89.4859 7.79339 90.4729 7.79339H91.3941C92.5456 7.79339 93.4668 7.56309 93.4668 5.42459H93.6313V12.2678Z" fill="#F2F6EF"/>
<path d="M66.7123 0.0618896V0.226391C65.7582 0.226391 64.7383 0.35799 64.6725 1.08179L70.3642 16.5777L71.2196 18.9794L77.4047 1.47659H77.3718C77.7008 0.390891 76.2532 0.226391 75.1346 0.226391V0.0618896H80.4644V0.226391C79.4116 0.226391 78.2601 0.32509 77.8324 1.21339L70.1668 23.059H69.8049V23.0261L61.876 1.47659C61.5141 0.259291 60.56 0.226391 59.4414 0.226391V0.0618896H66.7123Z" fill="#F2F6EF"/>
<path d="M46.5786 1.47659V21.6443C46.5786 22.6971 47.6972 22.73 48.7829 22.73H54.014C55.0997 22.73 55.7248 22.5655 56.0538 21.6443L57.304 17.466L57.4685 17.5318L55.988 23.059H41.5449V22.8945C42.6964 22.8945 43.8479 22.73 43.8479 21.6443V1.47659C43.8479 0.390891 42.6964 0.226391 41.5449 0.226391V0.0618896H48.8487V0.226391C47.7301 0.226391 46.5786 0.390891 46.5786 1.47659Z" fill="#F2F6EF"/>
<path d="M34.8676 12.2678H34.7031C34.7031 8.68169 33.7819 8.12239 32.6304 8.12239H31.7092C30.7222 8.12239 29.6694 8.25399 28.6824 8.51719V21.6443C28.6824 22.6971 29.801 22.6971 30.9196 22.6971H36.1507C37.2035 22.6971 37.8615 22.5655 38.1576 21.6114L39.4078 17.466L39.5723 17.4989L38.0918 23.059H23.6816V22.8945C24.8002 22.8945 25.9517 22.6971 25.9517 21.6443V9.80029C24.7015 10.7215 23.8461 12.0704 23.8461 13.9128H23.6816C23.6816 11.9059 24.6028 10.4254 25.9517 9.43839V1.47659C25.9517 0.390891 24.8002 0.226391 23.6816 0.226391V0.0618896H38.0918L39.5723 5.58909L39.4078 5.65489L38.1576 1.47659C37.8615 0.555391 37.2035 0.390891 36.1507 0.390891H30.9196C29.801 0.390891 28.6824 0.390891 28.6824 1.47659V8.18819C29.6694 7.92499 30.7222 7.79339 31.7092 7.79339H32.6304C33.7819 7.79339 34.7031 7.56309 34.7031 5.42459H34.8676V12.2678Z" fill="#F2F6EF"/>
<path d="M7.94861 0.0618896V0.226391C6.99451 0.226391 5.97461 0.35799 5.90881 1.08179L11.6005 16.5777L12.4559 18.9794L18.6411 1.47659H18.6082C18.9372 0.390891 17.4896 0.226391 16.371 0.226391V0.0618896H21.7008V0.226391C20.648 0.226391 19.4965 0.32509 19.0688 1.21339L11.4031 23.059H11.0412V23.0261L3.11232 1.47659C2.75043 0.259291 1.79633 0.226391 0.677734 0.226391V0.0618896H7.94861Z" fill="#F2F6EF"/>
<path d="M115.618 43.283C114.967 43.283 114.477 43.1017 114.146 42.739C113.826 42.387 113.666 41.9497 113.666 41.427C113.666 40.947 113.783 40.4403 114.018 39.907C114.263 39.3737 114.583 38.8723 114.978 38.403C115.383 37.9337 115.826 37.555 116.306 37.267C116.786 36.9683 117.261 36.819 117.73 36.819C117.975 36.819 118.199 36.883 118.402 37.011C118.615 37.139 118.722 37.4003 118.722 37.795C118.722 38.2003 118.599 38.5843 118.354 38.947C118.119 39.299 117.805 39.6137 117.41 39.891C117.026 40.1683 116.599 40.3977 116.13 40.579C115.671 40.7497 115.213 40.8563 114.754 40.899C114.733 41.0057 114.717 41.107 114.706 41.203C114.695 41.299 114.69 41.3897 114.69 41.475C114.69 41.635 114.706 41.795 114.738 41.955C114.781 42.115 114.85 42.2643 114.946 42.403C115.042 42.531 115.17 42.6323 115.33 42.707C115.501 42.7817 115.709 42.819 115.954 42.819C116.413 42.819 116.866 42.691 117.314 42.435C117.762 42.1683 118.178 41.8217 118.562 41.395C118.946 40.9683 119.271 40.499 119.538 39.987L119.73 40.131C119.442 40.771 119.074 41.3257 118.626 41.795C118.189 42.2643 117.709 42.627 117.186 42.883C116.674 43.1497 116.151 43.283 115.618 43.283ZM114.834 40.595C115.122 40.499 115.447 40.3603 115.81 40.179C116.173 39.987 116.519 39.763 116.85 39.507C117.191 39.251 117.469 38.9683 117.682 38.659C117.906 38.3497 118.018 38.0243 118.018 37.683C118.018 37.5657 117.997 37.475 117.954 37.411C117.911 37.347 117.821 37.315 117.682 37.315C117.426 37.315 117.154 37.4163 116.866 37.619C116.578 37.811 116.301 38.067 116.034 38.387C115.767 38.707 115.527 39.059 115.314 39.443C115.101 39.827 114.941 40.211 114.834 40.595Z" fill="#F2F6EF"/>
<path d="M111.096 42.995C110.733 42.995 110.445 42.899 110.232 42.707C110.029 42.515 109.928 42.2643 109.928 41.955C109.928 41.635 110.002 41.299 110.152 40.947C110.301 40.595 110.445 40.2483 110.584 39.907C110.733 39.555 110.808 39.2403 110.808 38.963C110.808 38.6217 110.706 38.371 110.504 38.211C110.312 38.0403 110.114 37.8857 109.912 37.747C109.666 38.3763 109.41 38.9737 109.144 39.539C108.877 40.1043 108.658 40.531 108.488 40.819L108.344 40.547C108.493 40.2697 108.685 39.8643 108.92 39.331C109.165 38.7977 109.405 38.1897 109.64 37.507C109.533 37.4003 109.48 37.2723 109.48 37.123C109.48 36.803 109.57 36.5417 109.752 36.339C109.933 36.1363 110.066 36.035 110.152 36.035C110.269 36.035 110.333 36.0883 110.344 36.195C110.365 36.291 110.376 36.3657 110.376 36.419C110.376 36.4723 110.344 36.579 110.28 36.739C110.226 36.8883 110.2 36.979 110.2 37.011C110.2 37.1603 110.28 37.299 110.44 37.427C110.61 37.5443 110.802 37.683 111.016 37.843C111.229 37.9923 111.416 38.179 111.576 38.403C111.746 38.6163 111.832 38.8937 111.832 39.235C111.832 39.555 111.762 39.8803 111.624 40.211C111.496 40.5417 111.362 40.8563 111.224 41.155C111.096 41.4537 111.032 41.715 111.032 41.939C111.032 42.131 111.08 42.259 111.176 42.323C111.272 42.387 111.384 42.419 111.512 42.419C111.768 42.419 112.029 42.339 112.296 42.179C112.573 42.019 112.84 41.8163 113.096 41.571C113.352 41.3257 113.581 41.0697 113.784 40.803C113.986 40.5257 114.136 40.2697 114.232 40.035L114.44 40.195C114.237 40.643 113.96 41.0857 113.608 41.523C113.256 41.9497 112.861 42.3017 112.424 42.579C111.997 42.8563 111.554 42.995 111.096 42.995Z" fill="#F2F6EF"/>
<path d="M102.125 43.331C101.795 43.331 101.517 43.219 101.293 42.995C101.059 42.7817 100.941 42.451 100.941 42.003C100.941 41.619 101.027 41.2083 101.197 40.771C101.368 40.323 101.603 39.8857 101.901 39.459C102.2 39.0217 102.536 38.627 102.909 38.275C103.293 37.9123 103.693 37.6243 104.109 37.411C104.536 37.1977 104.957 37.091 105.373 37.091C105.789 37.091 106.136 37.203 106.413 37.427C106.691 37.6403 106.829 37.9283 106.829 38.291C106.829 38.5577 106.755 38.739 106.605 38.835C106.467 38.931 106.28 38.979 106.045 38.979C106.067 38.8937 106.083 38.803 106.093 38.707C106.115 38.6003 106.125 38.5043 106.125 38.419C106.125 38.1737 106.067 37.9657 105.949 37.795C105.832 37.6137 105.629 37.523 105.341 37.523C105.043 37.523 104.739 37.6297 104.429 37.843C104.12 38.0457 103.821 38.323 103.533 38.675C103.245 39.0163 102.989 39.3897 102.765 39.795C102.541 40.2003 102.365 40.6003 102.237 40.995C102.109 41.3897 102.045 41.7417 102.045 42.051C102.045 42.467 102.189 42.675 102.477 42.675C102.723 42.675 102.989 42.563 103.277 42.339C103.565 42.1043 103.859 41.811 104.157 41.459C104.467 41.0963 104.76 40.723 105.037 40.339C105.315 39.955 105.56 39.603 105.773 39.283C105.816 39.219 105.843 39.187 105.853 39.187C105.917 39.1977 105.997 39.219 106.093 39.251C106.2 39.283 106.291 39.3257 106.365 39.379C106.44 39.4323 106.477 39.5017 106.477 39.587C106.477 39.683 106.429 39.8163 106.333 39.987C106.237 40.147 106.131 40.3337 106.013 40.547C105.896 40.7603 105.789 40.979 105.693 41.203C105.597 41.4163 105.549 41.619 105.549 41.811C105.549 41.971 105.592 42.131 105.677 42.291C105.763 42.4403 105.901 42.515 106.093 42.515C106.381 42.515 106.76 42.307 107.229 41.891C107.699 41.4643 108.173 40.8297 108.653 39.987L108.813 40.147C108.589 40.723 108.301 41.2297 107.949 41.667C107.597 42.1043 107.219 42.4457 106.813 42.691C106.419 42.9363 106.029 43.059 105.645 43.059C105.251 43.059 104.957 42.9417 104.765 42.707C104.584 42.4723 104.493 42.2163 104.493 41.939C104.493 41.875 104.499 41.8057 104.509 41.731C104.52 41.6457 104.531 41.5603 104.541 41.475C104.083 42.0937 103.661 42.5577 103.277 42.867C102.904 43.1763 102.52 43.331 102.125 43.331Z" fill="#F2F6EF"/>
<path d="M97.8975 43.475C97.3855 43.475 96.9588 43.3043 96.6175 42.963C96.2761 42.6217 96.1055 42.1097 96.1055 41.427C96.1055 40.8937 96.2068 40.3763 96.4095 39.875C96.6228 39.363 96.9001 38.9043 97.2415 38.499C97.5828 38.0937 97.9615 37.7737 98.3775 37.539C98.7935 37.2937 99.2041 37.171 99.6095 37.171C100.047 37.171 100.345 37.299 100.505 37.555C100.665 37.811 100.745 38.0777 100.745 38.355C100.745 38.6643 100.671 38.9363 100.521 39.171C100.383 39.4057 100.191 39.523 99.9455 39.523C99.7641 39.523 99.6095 39.443 99.4815 39.283C99.6415 39.1977 99.7801 39.027 99.8975 38.771C100.015 38.5043 100.073 38.2537 100.073 38.019C100.073 37.891 100.047 37.795 99.9935 37.731C99.9508 37.6563 99.8601 37.619 99.7215 37.619C99.4335 37.619 99.1348 37.747 98.8255 38.003C98.5268 38.259 98.2441 38.5897 97.9775 38.995C97.7215 39.4003 97.5081 39.827 97.3375 40.275C97.1775 40.723 97.0975 41.1443 97.0975 41.539C97.0975 41.8697 97.1775 42.1737 97.3375 42.451C97.4975 42.7283 97.8068 42.867 98.2655 42.867C98.6921 42.867 99.1188 42.7497 99.5455 42.515C99.9828 42.2803 100.388 41.9443 100.761 41.507C101.135 41.0697 101.433 40.5577 101.657 39.971L101.865 40.131C101.62 40.771 101.284 41.347 100.857 41.859C100.431 42.3603 99.9615 42.755 99.4495 43.043C98.9375 43.331 98.4201 43.475 97.8975 43.475Z" fill="#F2F6EF"/>
<path d="M93.901 42.899C93.5277 42.899 93.245 42.803 93.053 42.611C92.8717 42.419 92.781 42.1736 92.781 41.875C92.781 41.651 92.8183 41.4163 92.893 41.171C92.9783 40.9256 93.0583 40.675 93.133 40.419C93.2077 40.1523 93.245 39.8963 93.245 39.651C93.245 39.3523 93.181 39.1496 93.053 39.043C92.9357 38.9256 92.7863 38.867 92.605 38.867C92.2743 38.867 91.9383 39.0056 91.597 39.283C91.2557 39.5496 90.925 39.8963 90.605 40.323C90.285 40.739 89.9863 41.171 89.709 41.619C89.4317 42.067 89.1863 42.467 88.973 42.819C88.8023 42.819 88.6423 42.787 88.493 42.723C88.333 42.6696 88.2103 42.5843 88.125 42.467C88.125 42.4136 88.1837 42.2483 88.301 41.971C88.4077 41.6937 88.5357 41.3523 88.685 40.947C88.8343 40.5417 88.9677 40.1256 89.085 39.699C89.2023 39.2723 89.261 38.883 89.261 38.531C89.325 38.4563 89.4263 38.3816 89.565 38.307C89.7037 38.2323 89.8477 38.195 89.997 38.195C90.285 38.195 90.429 38.3336 90.429 38.611C90.429 38.7816 90.381 39.0696 90.285 39.475C90.189 39.8696 90.0663 40.2857 89.917 40.723C90.205 40.2857 90.525 39.8536 90.877 39.427C91.2397 38.9896 91.6237 38.627 92.029 38.339C92.4343 38.051 92.8397 37.907 93.245 37.907C93.661 37.907 93.9597 38.0563 94.141 38.355C94.333 38.6536 94.429 38.9843 94.429 39.347C94.429 39.6776 94.3757 39.987 94.269 40.275C94.1623 40.5523 94.0503 40.8243 93.933 41.091C93.8263 41.347 93.773 41.6083 93.773 41.875C93.773 42.099 93.8157 42.259 93.901 42.355C93.997 42.4403 94.1143 42.483 94.253 42.483C94.5197 42.483 94.7863 42.3603 95.053 42.115C95.3197 41.859 95.5757 41.539 95.821 41.155C96.077 40.771 96.301 40.3816 96.493 39.987L96.669 40.195C96.445 40.7177 96.1943 41.1817 95.917 41.587C95.6397 41.9923 95.3357 42.3123 95.005 42.547C94.6743 42.7817 94.3063 42.899 93.901 42.899Z" fill="#F2F6EF"/>
<path d="M86.025 42.995C85.609 42.995 85.2996 42.8617 85.097 42.595C84.8943 42.339 84.793 42.0243 84.793 41.651C84.793 41.4057 84.8356 41.0963 84.921 40.723C85.017 40.3497 85.1396 39.9603 85.289 39.555C85.4383 39.139 85.609 38.7497 85.801 38.387C86.0036 38.0243 86.217 37.731 86.441 37.507C86.665 37.2723 86.8836 37.155 87.097 37.155C87.193 37.155 87.273 37.187 87.337 37.251C87.4116 37.3043 87.449 37.3897 87.449 37.507C87.449 37.635 87.3636 37.843 87.193 38.131C87.033 38.419 86.841 38.7497 86.617 39.123C86.393 39.4963 86.1956 39.891 86.025 40.307C85.865 40.7123 85.785 41.1017 85.785 41.475C85.785 41.859 85.849 42.115 85.977 42.243C86.105 42.371 86.3023 42.435 86.569 42.435C86.9316 42.435 87.3156 42.2537 87.721 41.891C88.137 41.5283 88.5743 40.8937 89.033 39.987L89.177 40.147C88.8676 41.0643 88.4196 41.7683 87.833 42.259C87.257 42.7497 86.6543 42.995 86.025 42.995ZM87.945 35.667C87.7743 35.667 87.6196 35.6243 87.481 35.539C87.353 35.4537 87.289 35.3203 87.289 35.139C87.289 34.915 87.417 34.723 87.673 34.563C87.9396 34.3923 88.201 34.307 88.457 34.307C88.617 34.307 88.745 34.3443 88.841 34.419C88.937 34.4937 88.985 34.6217 88.985 34.803C88.985 35.0057 88.873 35.203 88.649 35.395C88.4356 35.5763 88.201 35.667 87.945 35.667Z" fill="#F2F6EF"/>
<path d="M82.4849 43.187C82.1862 43.187 81.9302 43.0857 81.7169 42.883C81.5035 42.6803 81.3329 42.4243 81.2049 42.115C81.0875 41.8057 80.9969 41.491 80.9329 41.171C80.8795 40.8403 80.8529 40.5523 80.8529 40.307C80.9702 40.307 81.1409 40.2803 81.3649 40.227C81.5889 40.163 81.8182 40.0723 82.0529 39.955C82.2875 39.827 82.4849 39.667 82.6449 39.475C82.8155 39.2723 82.9009 39.0377 82.9009 38.771C82.9009 38.547 82.8209 38.371 82.6609 38.243C82.5009 38.115 82.3142 38.051 82.1009 38.051C81.7702 38.051 81.4609 38.1683 81.1729 38.403C80.8849 38.627 80.6235 38.9257 80.3889 39.299C80.1649 39.6617 79.9622 40.051 79.7809 40.467C79.5995 40.883 79.4449 41.2777 79.3169 41.651C79.1889 42.0243 79.0822 42.3337 78.9969 42.579C78.9329 42.771 78.8422 42.899 78.7249 42.963C78.6075 43.0377 78.4849 43.075 78.3569 43.075C78.1755 43.075 78.0422 43.0003 77.9569 42.851C77.8822 42.7017 77.8342 42.515 77.8129 42.291C77.8022 42.0563 77.7969 41.8163 77.7969 41.571C77.7969 41.0163 77.8875 40.3763 78.0689 39.651C78.2502 38.9257 78.4902 38.1737 78.7889 37.395C79.0982 36.6057 79.4342 35.843 79.7969 35.107C80.1595 34.371 80.5222 33.7043 80.8849 33.107C81.2475 32.5097 81.5835 32.035 81.8929 31.683C82.2022 31.331 82.4529 31.155 82.6449 31.155C82.7942 31.155 82.9115 31.2563 82.9969 31.459C83.0929 31.6617 83.1409 31.907 83.1409 32.195C83.1409 32.5577 83.0609 32.9683 82.9009 33.427C82.7409 33.875 82.5115 34.3283 82.2129 34.787C81.9249 35.2457 81.5782 35.6777 81.1729 36.083C80.7782 36.4883 80.3462 36.835 79.8769 37.123C79.5249 37.987 79.2582 38.8297 79.0769 39.651C78.9062 40.4617 78.8209 41.1443 78.8209 41.699C78.9915 41.2723 79.1942 40.803 79.4289 40.291C79.6742 39.779 79.9515 39.2883 80.2609 38.819C80.5702 38.3497 80.9062 37.9657 81.2689 37.667C81.6315 37.3683 82.0102 37.219 82.4049 37.219C82.7995 37.219 83.1355 37.3577 83.4129 37.635C83.6902 37.9123 83.8289 38.2483 83.8289 38.643C83.8289 38.9843 83.7382 39.2777 83.5569 39.523C83.3862 39.7577 83.1729 39.9497 82.9169 40.099C82.6715 40.2377 82.4209 40.3443 82.1649 40.419C81.9195 40.483 81.7169 40.515 81.5569 40.515C81.5675 40.6003 81.5995 40.755 81.6529 40.979C81.7062 41.203 81.7809 41.4377 81.8769 41.683C81.9835 41.9283 82.1115 42.1417 82.2609 42.323C82.4102 42.4937 82.5915 42.579 82.8049 42.579C83.1142 42.579 83.4075 42.4617 83.6849 42.227C83.9622 41.9923 84.2235 41.683 84.4689 41.299C84.7249 40.9043 84.9595 40.4617 85.1729 39.971L85.3329 40.131C85.1835 40.6537 84.9542 41.1497 84.6449 41.619C84.3355 42.0777 83.9889 42.451 83.6049 42.739C83.2315 43.0377 82.8582 43.187 82.4849 43.187ZM80.1489 36.483C80.6395 36.0883 81.0662 35.6403 81.4289 35.139C81.8022 34.6377 82.0902 34.1577 82.2929 33.699C82.4955 33.2297 82.5969 32.8617 82.5969 32.595C82.5969 32.5417 82.5915 32.5043 82.5809 32.483C82.5809 32.4617 82.5702 32.451 82.5489 32.451C82.4422 32.451 82.2555 32.6377 81.9889 33.011C81.7329 33.3843 81.4395 33.8803 81.1089 34.499C80.7782 35.107 80.4582 35.7683 80.1489 36.483Z" fill="#F2F6EF"/>
<path d="M73.8965 43.395C73.3952 43.395 72.9952 43.283 72.6965 43.059C72.4085 42.8457 72.2058 42.579 72.0885 42.259C71.9605 41.939 71.8965 41.619 71.8965 41.299C71.8965 40.979 71.9391 40.7337 72.0245 40.563C72.1098 40.3923 72.2112 40.2643 72.3285 40.179C72.4565 40.0937 72.5738 40.0297 72.6805 39.987C72.7978 39.9443 72.8778 39.9017 72.9205 39.859C73.2405 39.507 73.5338 39.139 73.8005 38.755C74.0672 38.371 74.3018 37.9657 74.5045 37.539V37.347C74.5045 36.9523 74.5685 36.675 74.6965 36.515C74.8352 36.3443 74.9791 36.259 75.1285 36.259C75.2138 36.259 75.2778 36.2803 75.3205 36.323C75.3632 36.3657 75.3845 36.4137 75.3845 36.467C75.3845 36.5203 75.3685 36.6057 75.3365 36.723C75.3045 36.8403 75.2885 36.9897 75.2885 37.171C75.2885 37.523 75.3578 37.907 75.4965 38.323C75.6351 38.7283 75.7738 39.1603 75.9125 39.619C76.0511 40.067 76.1205 40.5363 76.1205 41.027C76.1205 41.1657 76.1098 41.3043 76.0885 41.443C76.0778 41.571 76.0565 41.6937 76.0245 41.811C76.3978 41.747 76.7498 41.5817 77.0805 41.315C77.4111 41.0377 77.7312 40.6003 78.0405 40.003L78.1845 40.163C77.9818 40.7497 77.6778 41.1977 77.2725 41.507C76.8672 41.8057 76.4245 41.9923 75.9445 42.067C75.7738 42.5257 75.5018 42.8617 75.1285 43.075C74.7658 43.2883 74.3552 43.395 73.8965 43.395ZM73.9285 42.835C74.0565 42.835 74.2271 42.7923 74.4405 42.707C74.6538 42.6217 74.8192 42.403 74.9365 42.051C74.4885 41.9657 74.0885 41.7897 73.7365 41.523C73.3952 41.2563 73.1391 40.9897 72.9685 40.723C72.7338 40.7337 72.6165 40.9203 72.6165 41.283C72.6165 41.667 72.7285 42.0243 72.9525 42.355C73.1872 42.675 73.5125 42.835 73.9285 42.835ZM75.0165 41.795C75.0378 41.6883 75.0538 41.5763 75.0645 41.459C75.0752 41.3417 75.0805 41.203 75.0805 41.043C75.0805 40.5417 75.0165 40.0457 74.8885 39.555C74.7712 39.0537 74.6698 38.5843 74.5845 38.147C74.3392 38.5523 74.0778 38.9417 73.8005 39.315C73.5338 39.6777 73.2778 39.9817 73.0325 40.227C73.1925 40.5683 73.4378 40.8883 73.7685 41.187C74.1098 41.4857 74.5258 41.6883 75.0165 41.795Z" fill="#F2F6EF"/>
<path d="M61.2743 43.971C60.6343 43.971 60.0796 43.8376 59.6103 43.571C59.141 43.3043 58.7783 42.9523 58.5223 42.515C58.277 42.067 58.1543 41.5816 58.1543 41.059C58.1543 40.5683 58.261 40.0883 58.4743 39.619C58.6876 39.1496 58.981 38.723 59.3543 38.339C59.7383 37.9443 60.181 37.6243 60.6823 37.379C61.1836 37.123 61.7223 36.9683 62.2983 36.915C61.8823 36.5736 61.573 36.179 61.3703 35.731C61.1783 35.283 61.0823 34.835 61.0823 34.387C61.0823 33.8216 61.2263 33.2883 61.5143 32.787C61.8023 32.275 62.1916 31.8643 62.6823 31.555C63.1836 31.235 63.7543 31.075 64.3943 31.075C64.9703 31.075 65.4023 31.219 65.6903 31.507C65.989 31.795 66.1383 32.2163 66.1383 32.771C66.1383 33.1656 66.0743 33.555 65.9463 33.939C65.8183 34.3123 65.6583 34.6216 65.4663 34.867C65.285 35.1016 65.1036 35.219 64.9223 35.219C64.805 35.219 64.693 35.171 64.5863 35.075C64.4796 34.9683 64.3943 34.8456 64.3303 34.707C64.7036 34.3763 65.013 34.035 65.2583 33.683C65.5143 33.3203 65.6423 32.931 65.6423 32.515C65.6423 32.1843 65.5516 31.9176 65.3703 31.715C65.1996 31.5016 64.9276 31.395 64.5543 31.395C64.053 31.395 63.6316 31.5496 63.2903 31.859C62.949 32.1576 62.6876 32.5576 62.5063 33.059C62.3356 33.5496 62.2503 34.083 62.2503 34.659C62.2503 34.915 62.2716 35.187 62.3143 35.475C62.3676 35.763 62.4583 36.0456 62.5863 36.323C62.725 36.6003 62.9223 36.851 63.1783 37.075C62.4636 37.1923 61.8396 37.4643 61.3063 37.891C60.7836 38.3176 60.373 38.819 60.0743 39.395C59.7863 39.971 59.6423 40.5416 59.6423 41.107C59.6423 41.459 59.7063 41.8163 59.8343 42.179C59.973 42.531 60.1916 42.8243 60.4903 43.059C60.789 43.3043 61.189 43.427 61.6903 43.427C62.2556 43.427 62.7996 43.283 63.3223 42.995C63.8556 42.707 64.3356 42.323 64.7623 41.843C65.1996 41.363 65.557 40.8243 65.8343 40.227C66.1116 39.619 66.2876 38.995 66.3623 38.355C66.1383 38.3656 65.9303 38.3816 65.7383 38.403C65.557 38.4243 65.3543 38.4563 65.1303 38.499C64.9063 38.531 64.6183 38.5843 64.2663 38.659C64.2876 38.211 64.4583 37.9123 64.7783 37.763C65.0983 37.6136 65.4823 37.539 65.9303 37.539C66.2503 37.539 66.5543 37.5603 66.8423 37.603C67.1303 37.6456 67.4023 37.6883 67.6583 37.731C67.925 37.7736 68.165 37.8003 68.3783 37.811C68.261 38.0563 68.1436 38.2056 68.0263 38.259C67.9196 38.3016 67.813 38.323 67.7063 38.323C67.525 38.323 67.3543 38.3283 67.1943 38.339C67.045 38.339 66.9063 38.339 66.7783 38.339C66.7036 39.075 66.501 39.779 66.1703 40.451C65.8503 41.123 65.4343 41.7256 64.9223 42.259C64.421 42.7816 63.8556 43.1976 63.2263 43.507C62.6076 43.8163 61.957 43.971 61.2743 43.971Z" fill="#F2F6EF"/>
<path d="M51.5925 43.059C51.1338 43.059 50.8032 42.899 50.6005 42.579C50.4085 42.2697 50.3125 41.8803 50.3125 41.411C50.3125 40.899 50.4085 40.291 50.6005 39.587C50.7925 38.883 51.0432 38.1417 51.3525 37.363C51.6725 36.5843 52.0192 35.827 52.3925 35.091C52.7658 34.3443 53.1392 33.667 53.5125 33.059C53.8858 32.451 54.2272 31.9657 54.5365 31.603C54.8565 31.2403 55.1072 31.059 55.2885 31.059C55.4058 31.059 55.5018 31.1283 55.5765 31.267C55.6512 31.395 55.7098 31.555 55.7525 31.747C55.7952 31.9283 55.8165 32.0937 55.8165 32.243C55.8165 32.531 55.7418 32.9097 55.5925 33.379C55.4538 33.8377 55.2512 34.355 54.9845 34.931C54.7285 35.4963 54.4192 36.0723 54.0565 36.659C53.7045 37.235 53.3152 37.7897 52.8885 38.323C52.4725 38.8563 52.0298 39.315 51.5605 39.699C51.4965 39.987 51.4432 40.2697 51.4005 40.547C51.3685 40.8137 51.3525 41.0697 51.3525 41.315C51.3525 41.731 51.4112 42.0403 51.5285 42.243C51.6458 42.4457 51.8218 42.547 52.0565 42.547C52.3445 42.547 52.6272 42.419 52.9045 42.163C53.1925 41.907 53.4592 41.587 53.7045 41.203C53.9605 40.8083 54.1792 40.403 54.3605 39.987L54.6005 40.115C54.1738 41.0217 53.7098 41.7417 53.2085 42.275C52.7072 42.7977 52.1685 43.059 51.5925 43.059ZM51.7045 39.155C52.0778 38.7817 52.4405 38.355 52.7925 37.875C53.1445 37.3843 53.4698 36.8777 53.7685 36.355C54.0778 35.8323 54.3498 35.3257 54.5845 34.835C54.8192 34.3443 55.0005 33.907 55.1285 33.523C55.2565 33.1283 55.3205 32.8243 55.3205 32.611C55.3205 32.5043 55.3045 32.435 55.2725 32.403C55.2512 32.371 55.2298 32.355 55.2085 32.355C55.1232 32.355 54.9738 32.4937 54.7605 32.771C54.5578 33.0377 54.3178 33.4003 54.0405 33.859C53.7632 34.3177 53.4805 34.8403 53.1925 35.427C52.9045 36.0137 52.6272 36.627 52.3605 37.267C52.1045 37.907 51.8858 38.5363 51.7045 39.155Z" fill="#F2F6EF"/>
<path d="M44.0629 43.331C43.7322 43.331 43.4549 43.219 43.2309 42.995C42.9962 42.7817 42.8789 42.451 42.8789 42.003C42.8789 41.619 42.9642 41.2083 43.1349 40.771C43.3056 40.323 43.5402 39.8857 43.8389 39.459C44.1376 39.0217 44.4736 38.627 44.8469 38.275C45.2309 37.9123 45.6309 37.6243 46.0469 37.411C46.4736 37.1977 46.8949 37.091 47.3109 37.091C47.7269 37.091 48.0736 37.203 48.3509 37.427C48.6282 37.6403 48.7669 37.9283 48.7669 38.291C48.7669 38.5577 48.6922 38.739 48.5429 38.835C48.4042 38.931 48.2176 38.979 47.9829 38.979C48.0042 38.8937 48.0202 38.803 48.0309 38.707C48.0522 38.6003 48.0629 38.5043 48.0629 38.419C48.0629 38.1737 48.0042 37.9657 47.8869 37.795C47.7696 37.6137 47.5669 37.523 47.2789 37.523C46.9802 37.523 46.6762 37.6297 46.3669 37.843C46.0576 38.0457 45.7589 38.323 45.4709 38.675C45.1829 39.0163 44.9269 39.3897 44.7029 39.795C44.4789 40.2003 44.3029 40.6003 44.1749 40.995C44.0469 41.3897 43.9829 41.7417 43.9829 42.051C43.9829 42.467 44.1269 42.675 44.4149 42.675C44.6602 42.675 44.9269 42.563 45.2149 42.339C45.5029 42.1043 45.7962 41.811 46.0949 41.459C46.4042 41.0963 46.6976 40.723 46.9749 40.339C47.2522 39.955 47.4976 39.603 47.7109 39.283C47.7536 39.219 47.7802 39.187 47.7909 39.187C47.8549 39.1977 47.9349 39.219 48.0309 39.251C48.1376 39.283 48.2282 39.3257 48.3029 39.379C48.3776 39.4323 48.4149 39.5017 48.4149 39.587C48.4149 39.683 48.3669 39.8163 48.2709 39.987C48.1749 40.147 48.0682 40.3337 47.9509 40.547C47.8336 40.7603 47.7269 40.979 47.6309 41.203C47.5349 41.4163 47.4869 41.619 47.4869 41.811C47.4869 41.971 47.5296 42.131 47.6149 42.291C47.7002 42.4403 47.8389 42.515 48.0309 42.515C48.3189 42.515 48.6976 42.307 49.1669 41.891C49.6362 41.4643 50.1109 40.8297 50.5909 39.987L50.7509 40.147C50.5269 40.723 50.2389 41.2297 49.8869 41.667C49.5349 42.1043 49.1562 42.4457 48.7509 42.691C48.3562 42.9363 47.9669 43.059 47.5829 43.059C47.1882 43.059 46.8949 42.9417 46.7029 42.707C46.5216 42.4723 46.4309 42.2163 46.4309 41.939C46.4309 41.875 46.4362 41.8057 46.4469 41.731C46.4576 41.6457 46.4682 41.5603 46.4789 41.475C46.0202 42.0937 45.5989 42.5577 45.2149 42.867C44.8416 43.1763 44.4576 43.331 44.0629 43.331Z" fill="#F2F6EF"/>
<path d="M40.5875 42.995C40.1715 42.995 39.8621 42.8617 39.6595 42.595C39.4568 42.339 39.3555 42.0243 39.3555 41.651C39.3555 41.4057 39.3981 41.0963 39.4835 40.723C39.5795 40.3497 39.7021 39.9603 39.8515 39.555C40.0008 39.139 40.1715 38.7497 40.3635 38.387C40.5661 38.0243 40.7795 37.731 41.0035 37.507C41.2275 37.2723 41.4461 37.155 41.6595 37.155C41.7555 37.155 41.8355 37.187 41.8995 37.251C41.9741 37.3043 42.0115 37.3897 42.0115 37.507C42.0115 37.635 41.9261 37.843 41.7555 38.131C41.5955 38.419 41.4035 38.7497 41.1795 39.123C40.9555 39.4963 40.7581 39.891 40.5875 40.307C40.4275 40.7123 40.3475 41.1017 40.3475 41.475C40.3475 41.859 40.4115 42.115 40.5395 42.243C40.6675 42.371 40.8648 42.435 41.1315 42.435C41.4941 42.435 41.8781 42.2537 42.2835 41.891C42.6995 41.5283 43.1368 40.8937 43.5955 39.987L43.7395 40.147C43.4301 41.0643 42.9821 41.7683 42.3955 42.259C41.8195 42.7497 41.2168 42.995 40.5875 42.995ZM42.5075 35.667C42.3368 35.667 42.1821 35.6243 42.0435 35.539C41.9155 35.4537 41.8515 35.3203 41.8515 35.139C41.8515 34.915 41.9795 34.723 42.2355 34.563C42.5021 34.3923 42.7635 34.307 43.0195 34.307C43.1795 34.307 43.3075 34.3443 43.4035 34.419C43.4995 34.4937 43.5475 34.6217 43.5475 34.803C43.5475 35.0057 43.4355 35.203 43.2115 35.395C42.9981 35.5763 42.7635 35.667 42.5075 35.667Z" fill="#F2F6EF"/>
<path d="M35.9756 43.475C35.4636 43.475 35.0369 43.3043 34.6956 42.963C34.3543 42.6217 34.1836 42.1097 34.1836 41.427C34.1836 40.8937 34.2849 40.3763 34.4876 39.875C34.7009 39.363 34.9783 38.9043 35.3196 38.499C35.6609 38.0937 36.0396 37.7737 36.4556 37.539C36.8716 37.2937 37.2823 37.171 37.6876 37.171C38.1249 37.171 38.4236 37.299 38.5836 37.555C38.7436 37.811 38.8236 38.0777 38.8236 38.355C38.8236 38.6643 38.7489 38.9363 38.5996 39.171C38.4609 39.4057 38.2689 39.523 38.0236 39.523C37.8423 39.523 37.6876 39.443 37.5596 39.283C37.7196 39.1977 37.8583 39.027 37.9756 38.771C38.0929 38.5043 38.1516 38.2537 38.1516 38.019C38.1516 37.891 38.1249 37.795 38.0716 37.731C38.0289 37.6563 37.9383 37.619 37.7996 37.619C37.5116 37.619 37.2129 37.747 36.9036 38.003C36.6049 38.259 36.3223 38.5897 36.0556 38.995C35.7996 39.4003 35.5863 39.827 35.4156 40.275C35.2556 40.723 35.1756 41.1443 35.1756 41.539C35.1756 41.8697 35.2556 42.1737 35.4156 42.451C35.5756 42.7283 35.8849 42.867 36.3436 42.867C36.7703 42.867 37.1969 42.7497 37.6236 42.515C38.0609 42.2803 38.4663 41.9443 38.8396 41.507C39.2129 41.0697 39.5116 40.5577 39.7356 39.971L39.9436 40.131C39.6983 40.771 39.3623 41.347 38.9356 41.859C38.5089 42.3603 38.0396 42.755 37.5276 43.043C37.0156 43.331 36.4983 43.475 35.9756 43.475Z" fill="#F2F6EF"/>
<path d="M28.0629 43.331C27.7322 43.331 27.4549 43.219 27.2309 42.995C26.9962 42.7817 26.8789 42.451 26.8789 42.003C26.8789 41.619 26.9642 41.2083 27.1349 40.771C27.3056 40.323 27.5402 39.8857 27.8389 39.459C28.1376 39.0217 28.4736 38.627 28.8469 38.275C29.2309 37.9123 29.6309 37.6243 30.0469 37.411C30.4736 37.1977 30.8949 37.091 31.3109 37.091C31.7269 37.091 32.0736 37.203 32.3509 37.427C32.6282 37.6403 32.7669 37.9283 32.7669 38.291C32.7669 38.5577 32.6922 38.739 32.5429 38.835C32.4042 38.931 32.2176 38.979 31.9829 38.979C32.0042 38.8937 32.0202 38.803 32.0309 38.707C32.0522 38.6003 32.0629 38.5043 32.0629 38.419C32.0629 38.1737 32.0042 37.9657 31.8869 37.795C31.7696 37.6137 31.5669 37.523 31.2789 37.523C30.9802 37.523 30.6762 37.6297 30.3669 37.843C30.0576 38.0457 29.7589 38.323 29.4709 38.675C29.1829 39.0163 28.9269 39.3897 28.7029 39.795C28.4789 40.2003 28.3029 40.6003 28.1749 40.995C28.0469 41.3897 27.9829 41.7417 27.9829 42.051C27.9829 42.467 28.1269 42.675 28.4149 42.675C28.6602 42.675 28.9269 42.563 29.2149 42.339C29.5029 42.1043 29.7962 41.811 30.0949 41.459C30.4042 41.0963 30.6976 40.723 30.9749 40.339C31.2522 39.955 31.4976 39.603 31.7109 39.283C31.7536 39.219 31.7802 39.187 31.7909 39.187C31.8549 39.1977 31.9349 39.219 32.0309 39.251C32.1376 39.283 32.2282 39.3257 32.3029 39.379C32.3776 39.4323 32.4149 39.5017 32.4149 39.587C32.4149 39.683 32.3669 39.8163 32.2709 39.987C32.1749 40.147 32.0682 40.3337 31.9509 40.547C31.8336 40.7603 31.7269 40.979 31.6309 41.203C31.5349 41.4163 31.4869 41.619 31.4869 41.811C31.4869 41.971 31.5296 42.131 31.6149 42.291C31.7002 42.4403 31.8389 42.515 32.0309 42.515C32.3189 42.515 32.6976 42.307 33.1669 41.891C33.6362 41.4643 34.1109 40.8297 34.5909 39.987L34.7509 40.147C34.5269 40.723 34.2389 41.2297 33.8869 41.667C33.5349 42.1043 33.1562 42.4457 32.7509 42.691C32.3562 42.9363 31.9669 43.059 31.5829 43.059C31.1882 43.059 30.8949 42.9417 30.7029 42.707C30.5216 42.4723 30.4309 42.2163 30.4309 41.939C30.4309 41.875 30.4362 41.8057 30.4469 41.731C30.4576 41.6457 30.4682 41.5603 30.4789 41.475C30.0202 42.0937 29.5989 42.5577 29.2149 42.867C28.8416 43.1763 28.4576 43.331 28.0629 43.331Z" fill="#F2F6EF"/>
<path d="M22.6807 43.971C22.19 43.9283 21.886 43.795 21.7687 43.571C21.6514 43.347 21.5927 43.059 21.5927 42.707C21.5927 42.323 21.6727 41.8536 21.8327 41.299C21.9927 40.7336 22.19 40.1203 22.4247 39.459C22.67 38.7976 22.9154 38.1363 23.1607 37.475C23.0327 37.4856 22.894 37.5016 22.7447 37.523C22.606 37.5336 22.43 37.555 22.2167 37.587C22.0034 37.6083 21.726 37.6456 21.3847 37.699C21.406 37.4216 21.5074 37.2083 21.6887 37.059C21.8807 36.899 22.1314 36.7816 22.4407 36.707C22.75 36.6323 23.0967 36.5896 23.4807 36.579C23.7794 35.7576 24.0834 34.9576 24.3927 34.179C24.7127 33.3896 25.0274 32.6696 25.3367 32.019C25.23 32.0083 25.1234 32.003 25.0167 32.003C24.9207 31.9923 24.8194 31.987 24.7127 31.987C24.03 31.987 23.502 32.0563 23.1287 32.195C22.7554 32.3336 22.4994 32.547 22.3607 32.835C22.222 33.123 22.1527 33.491 22.1527 33.939C22.1527 34.1736 22.1687 34.3923 22.2007 34.595C22.2327 34.787 22.286 34.9896 22.3607 35.203C21.998 35.139 21.7314 35.0003 21.5607 34.787C21.39 34.563 21.3047 34.2856 21.3047 33.955C21.3047 33.4003 21.502 32.915 21.8967 32.499C22.2914 32.0723 22.8194 31.7416 23.4807 31.507C24.1527 31.2616 24.894 31.139 25.7047 31.139C26.27 31.139 26.814 31.1816 27.3367 31.267C27.87 31.3416 28.3874 31.379 28.8887 31.379C29.1127 31.379 29.3154 31.3683 29.4967 31.347C29.6887 31.315 29.8807 31.2723 30.0727 31.219C29.678 31.667 29.3474 31.9656 29.0807 32.115C28.814 32.2643 28.542 32.339 28.2647 32.339C28.0194 32.339 27.6994 32.307 27.3047 32.243C26.9207 32.1683 26.4834 32.1096 25.9927 32.067C25.854 32.419 25.6994 32.8456 25.5287 33.347C25.358 33.8376 25.182 34.3656 25.0007 34.931C24.8194 35.4856 24.638 36.0403 24.4567 36.595C24.99 36.627 25.4914 36.675 25.9607 36.739C26.4407 36.803 26.8727 36.8403 27.2567 36.851C27.1714 36.979 27.07 37.0803 26.9527 37.155C26.846 37.219 26.6914 37.267 26.4887 37.299C26.286 37.331 26.0034 37.3576 25.6407 37.379C25.2887 37.3896 24.814 37.4003 24.2167 37.411C24.1527 37.635 24.0727 37.9016 23.9767 38.211C23.8807 38.5203 23.7954 38.8136 23.7207 39.091C23.646 39.3683 23.5874 39.571 23.5447 39.699C23.31 40.5203 23.1074 41.2883 22.9367 42.003C22.7767 42.7176 22.6914 43.3736 22.6807 43.971Z" fill="#F2F6EF"/>
</svg>
